<?xml version="1.0" encoding="utf-8"?>
<!-- Generator: Adobe Illustrator 19.2.0, SVG Export Plug-In . SVG Version: 6.00 Build 0)  -->
<svg version="1.1" id="icon" xmlns="http://www.w3.org/2000/svg" xmlns:xlink="http://www.w3.org/1999/xlink" x="0px" y="0px"
	 viewBox="0 0 512 512" style="enable-background:new 0 0 512 512;" xml:space="preserve">
<g>
	<polygon points="130.6,410.1 124.6,399.7 113.6,406.1 113.6,393.4 101.6,393.4 101.6,406.1 90.6,399.7 84.6,410.1 95.6,416.5 
		84.6,422.9 90.6,433.3 101.6,426.9 101.6,439.6 113.6,439.6 113.6,426.9 124.6,433.3 130.6,422.9 119.6,416.5 	"/>
	<polygon points="229.6,410.1 223.6,399.7 212.5,406.1 212.5,393.4 200.5,393.4 200.5,406.1 189.5,399.7 183.5,410.1 194.5,416.5 
		183.5,422.9 189.5,433.3 200.5,426.9 200.5,439.6 212.5,439.6 212.5,426.9 223.6,433.3 229.6,422.9 218.5,416.5 	"/>
	<polygon points="328.5,410.1 322.5,399.7 311.5,406.1 311.5,393.4 299.5,393.4 299.5,406.1 288.4,399.7 282.4,410.1 293.5,416.5 
		282.4,422.9 288.4,433.3 299.5,426.9 299.5,439.6 311.5,439.6 311.5,426.9 322.5,433.3 328.5,422.9 317.5,416.5 	"/>
	<polygon points="427.4,410.1 421.4,399.7 410.4,406.1 410.4,393.4 398.4,393.4 398.4,406.1 387.4,399.7 381.4,410.1 392.4,416.5 
		381.4,422.9 387.4,433.3 398.4,426.9 398.4,439.6 410.4,439.6 410.4,426.9 421.4,433.3 427.4,422.9 416.4,416.5 	"/>
	<polygon points="377.9,449.1 371.9,438.7 360.9,445.1 360.9,432.4 348.9,432.4 348.9,445.1 337.9,438.7 331.9,449.1 342.9,455.5 
		331.9,461.9 337.9,472.3 348.9,465.9 348.9,478.6 360.9,478.6 360.9,465.9 371.9,472.3 377.9,461.9 366.9,455.5 	"/>
	<polygon points="279,449.1 273,438.7 262,445.1 262,432.4 250,432.4 250,445.1 239,438.7 233,449.1 244,455.5 233,461.9 239,472.3 
		250,465.9 250,478.6 262,478.6 262,465.9 273,472.3 279,461.9 268,455.5 	"/>
	<polygon points="180.1,449.1 174.1,438.7 163.1,445.1 163.1,432.4 151.1,432.4 151.1,445.1 140.1,438.7 134.1,449.1 145.1,455.5 
		134.1,461.9 140.1,472.3 151.1,465.9 151.1,478.6 163.1,478.6 163.1,465.9 174.1,472.3 180.1,461.9 169.1,455.5 	"/>
	<polygon points="130.6,320.1 124.6,309.7 113.6,316.1 113.6,303.4 101.6,303.4 101.6,316.1 90.6,309.7 84.6,320.1 95.6,326.5 
		84.6,332.9 90.6,343.3 101.6,336.9 101.6,349.6 113.6,349.6 113.6,336.9 124.6,343.3 130.6,332.9 119.6,326.5 	"/>
	<polygon points="229.6,320.1 223.6,309.7 212.5,316.1 212.5,303.4 200.5,303.4 200.5,316.1 189.5,309.7 183.5,320.1 194.5,326.5 
		183.5,332.9 189.5,343.3 200.5,336.9 200.5,349.6 212.5,349.6 212.5,336.9 223.6,343.3 229.6,332.9 218.5,326.5 	"/>
	<polygon points="328.5,320.1 322.5,309.7 311.5,316.1 311.5,303.4 299.5,303.4 299.5,316.1 288.4,309.7 282.4,320.1 293.5,326.5 
		282.4,332.9 288.4,343.3 299.5,336.9 299.5,349.6 311.5,349.6 311.5,336.9 322.5,343.3 328.5,332.9 317.5,326.5 	"/>
	<polygon points="427.4,320.1 421.4,309.7 410.4,316.1 410.4,303.4 398.4,303.4 398.4,316.1 387.4,309.7 381.4,320.1 392.4,326.5 
		381.4,332.9 387.4,343.3 398.4,336.9 398.4,349.6 410.4,349.6 410.4,336.9 421.4,343.3 427.4,332.9 416.4,326.5 	"/>
	<polygon points="377.9,359.1 371.9,348.7 360.9,355.1 360.9,342.4 348.9,342.4 348.9,355.1 337.9,348.7 331.9,359.1 342.9,365.5 
		331.9,371.9 337.9,382.3 348.9,375.9 348.9,388.6 360.9,388.6 360.9,375.9 371.9,382.3 377.9,371.9 366.9,365.5 	"/>
	<polygon points="279,359.1 273,348.7 262,355.1 262,342.4 250,342.4 250,355.1 239,348.7 233,359.1 244,365.5 233,371.9 239,382.3 
		250,375.9 250,388.6 262,388.6 262,375.9 273,382.3 279,371.9 268,365.5 	"/>
	<polygon points="180.1,359.1 174.1,348.7 163.1,355.1 163.1,342.4 151.1,342.4 151.1,355.1 140.1,348.7 134.1,359.1 145.1,365.5 
		134.1,371.9 140.1,382.3 151.1,375.9 151.1,388.6 163.1,388.6 163.1,375.9 174.1,382.3 180.1,371.9 169.1,365.5 	"/>
	<polygon points="130.6,230.1 124.6,219.7 113.6,226.1 113.6,213.4 101.6,213.4 101.6,226.1 90.6,219.7 84.6,230.1 95.6,236.5 
		84.6,242.9 90.6,253.3 101.6,246.9 101.6,259.6 113.6,259.6 113.6,246.9 124.6,253.3 130.6,242.9 119.6,236.5 	"/>
	<polygon points="229.6,230.1 223.6,219.7 212.5,226.1 212.5,213.4 200.5,213.4 200.5,226.1 189.5,219.7 183.5,230.1 194.5,236.5 
		183.5,242.9 189.5,253.3 200.5,246.9 200.5,259.6 212.5,259.6 212.5,246.9 223.6,253.3 229.6,242.9 218.5,236.5 	"/>
	<polygon points="328.5,230.1 322.5,219.7 311.5,226.1 311.5,213.4 299.5,213.4 299.5,226.1 288.4,219.7 282.4,230.1 293.5,236.5 
		282.4,242.9 288.4,253.3 299.5,246.9 299.5,259.6 311.5,259.6 311.5,246.9 322.5,253.3 328.5,242.9 317.5,236.5 	"/>
	<polygon points="427.4,230.1 421.4,219.7 410.4,226.1 410.4,213.4 398.4,213.4 398.4,226.1 387.4,219.7 381.4,230.1 392.4,236.5 
		381.4,242.9 387.4,253.3 398.4,246.9 398.4,259.6 410.4,259.6 410.4,246.9 421.4,253.3 427.4,242.9 416.4,236.5 	"/>
	<polygon points="377.9,269.1 371.9,258.7 360.9,265.1 360.9,252.4 348.9,252.4 348.9,265.1 337.9,258.7 331.9,269.1 342.9,275.5 
		331.9,281.9 337.9,292.3 348.9,285.9 348.9,298.6 360.9,298.6 360.9,285.9 371.9,292.3 377.9,281.9 366.9,275.5 	"/>
	<polygon points="279,269.1 273,258.7 262,265.1 262,252.4 250,252.4 250,265.1 239,258.7 233,269.1 244,275.5 233,281.9 239,292.3 
		250,285.9 250,298.6 262,298.6 262,285.9 273,292.3 279,281.9 268,275.5 	"/>
	<polygon points="180.1,269.1 174.1,258.7 163.1,265.1 163.1,252.4 151.1,252.4 151.1,265.1 140.1,258.7 134.1,269.1 145.1,275.5 
		134.1,281.9 140.1,292.3 151.1,285.9 151.1,298.6 163.1,298.6 163.1,285.9 174.1,292.3 180.1,281.9 169.1,275.5 	"/>
	<polygon points="130.6,140.1 124.6,129.7 113.6,136.1 113.6,123.4 101.6,123.4 101.6,136.1 90.6,129.7 84.6,140.1 95.6,146.5 
		84.6,152.9 90.6,163.3 101.6,156.9 101.6,169.6 113.6,169.6 113.6,156.9 124.6,163.3 130.6,152.9 119.6,146.5 	"/>
	<polygon points="229.6,140.1 223.6,129.7 212.5,136.1 212.5,123.4 200.5,123.4 200.5,136.1 189.5,129.7 183.5,140.1 194.5,146.5 
		183.5,152.9 189.5,163.3 200.5,156.9 200.5,169.6 212.5,169.6 212.5,156.9 223.6,163.3 229.6,152.9 218.5,146.5 	"/>
	<polygon points="328.5,140.1 322.5,129.7 311.5,136.1 311.5,123.4 299.5,123.4 299.5,136.1 288.4,129.7 282.4,140.1 293.5,146.5 
		282.4,152.9 288.4,163.3 299.5,156.9 299.5,169.6 311.5,169.6 311.5,156.9 322.5,163.3 328.5,152.9 317.5,146.5 	"/>
	<polygon points="427.4,140.1 421.4,129.7 410.4,136.1 410.4,123.4 398.4,123.4 398.4,136.1 387.4,129.7 381.4,140.1 392.4,146.5 
		381.4,152.9 387.4,163.3 398.4,156.9 398.4,169.6 410.4,169.6 410.4,156.9 421.4,163.3 427.4,152.9 416.4,146.5 	"/>
	<polygon points="377.9,179.1 371.9,168.7 360.9,175.1 360.9,162.4 348.9,162.4 348.9,175.1 337.9,168.7 331.9,179.1 342.9,185.5 
		331.9,191.9 337.9,202.3 348.9,195.9 348.9,208.6 360.9,208.6 360.9,195.9 371.9,202.3 377.9,191.9 366.9,185.5 	"/>
	<polygon points="279,179.1 273,168.7 262,175.1 262,162.4 250,162.4 250,175.1 239,168.7 233,179.1 244,185.5 233,191.9 239,202.3 
		250,195.9 250,208.6 262,208.6 262,195.9 273,202.3 279,191.9 268,185.5 	"/>
	<polygon points="180.1,179.1 174.1,168.7 163.1,175.1 163.1,162.4 151.1,162.4 151.1,175.1 140.1,168.7 134.1,179.1 145.1,185.5 
		134.1,191.9 140.1,202.3 151.1,195.9 151.1,208.6 163.1,208.6 163.1,195.9 174.1,202.3 180.1,191.9 169.1,185.5 	"/>
	<polygon points="130.6,50.1 124.6,39.7 113.6,46.1 113.6,33.4 101.6,33.4 101.6,46.1 90.6,39.7 84.6,50.1 95.6,56.5 84.6,62.9 
		90.6,73.3 101.6,66.9 101.6,79.6 113.6,79.6 113.6,66.9 124.6,73.3 130.6,62.9 119.6,56.5 	"/>
	<polygon points="229.6,50.1 223.6,39.7 212.5,46.1 212.5,33.4 200.5,33.4 200.5,46.1 189.5,39.7 183.5,50.1 194.5,56.5 183.5,62.9 
		189.5,73.3 200.5,66.9 200.5,79.6 212.5,79.6 212.5,66.9 223.6,73.3 229.6,62.9 218.5,56.5 	"/>
	<polygon points="328.5,50.1 322.5,39.7 311.5,46.1 311.5,33.4 299.5,33.4 299.5,46.1 288.4,39.7 282.4,50.1 293.5,56.5 282.4,62.9 
		288.4,73.3 299.5,66.9 299.5,79.6 311.5,79.6 311.5,66.9 322.5,73.3 328.5,62.9 317.5,56.5 	"/>
	<polygon points="427.4,50.1 421.4,39.7 410.4,46.1 410.4,33.4 398.4,33.4 398.4,46.1 387.4,39.7 381.4,50.1 392.4,56.5 381.4,62.9 
		387.4,73.3 398.4,66.9 398.4,79.6 410.4,79.6 410.4,66.9 421.4,73.3 427.4,62.9 416.4,56.5 	"/>
	<polygon points="377.9,89.1 371.9,78.7 360.9,85.1 360.9,72.4 348.9,72.4 348.9,85.1 337.9,78.7 331.9,89.1 342.9,95.5 
		331.9,101.9 337.9,112.3 348.9,105.9 348.9,118.6 360.9,118.6 360.9,105.9 371.9,112.3 377.9,101.9 366.9,95.5 	"/>
	<polygon points="279,89.1 273,78.7 262,85.1 262,72.4 250,72.4 250,85.1 239,78.7 233,89.1 244,95.5 233,101.9 239,112.3 
		250,105.9 250,118.6 262,118.6 262,105.9 273,112.3 279,101.9 268,95.5 	"/>
	<polygon points="180.1,89.1 174.1,78.7 163.1,85.1 163.1,72.4 151.1,72.4 151.1,85.1 140.1,78.7 134.1,89.1 145.1,95.5 
		134.1,101.9 140.1,112.3 151.1,105.9 151.1,118.6 163.1,118.6 163.1,105.9 174.1,112.3 180.1,101.9 169.1,95.5 	"/>
</g>
</svg>
