<?xml version="1.0" encoding="utf-8"?>
<!-- Generator: Adobe Illustrator 19.2.0, SVG Export Plug-In . SVG Version: 6.00 Build 0)  -->
<svg version="1.1" id="snow" xmlns="http://www.w3.org/2000/svg" xmlns:xlink="http://www.w3.org/1999/xlink" x="0px" y="0px"
	 viewBox="0 0 512 512" style="enable-background:new 0 0 512 512;" xml:space="preserve">
<g>
	<polygon points="130.6,275.1 124.6,264.7 113.6,271.1 113.6,258.4 101.6,258.4 101.6,271.1 90.6,264.7 84.6,275.1 95.6,281.5 
		84.6,287.9 90.6,298.3 101.6,291.9 101.6,304.6 113.6,304.6 113.6,291.9 124.6,298.3 130.6,287.9 119.6,281.5 	"/>
	<polygon points="229.6,275.1 223.6,264.7 212.5,271.1 212.5,258.4 200.5,258.4 200.5,271.1 189.5,264.7 183.5,275.1 194.5,281.5 
		183.5,287.9 189.5,298.3 200.5,291.9 200.5,304.6 212.5,304.6 212.5,291.9 223.6,298.3 229.6,287.9 218.5,281.5 	"/>
	<polygon points="328.5,275.1 322.5,264.7 311.5,271.1 311.5,258.4 299.5,258.4 299.5,271.1 288.4,264.7 282.4,275.1 293.5,281.5 
		282.4,287.9 288.4,298.3 299.5,291.9 299.5,304.6 311.5,304.6 311.5,291.9 322.5,298.3 328.5,287.9 317.5,281.5 	"/>
	<polygon points="427.4,275.1 421.4,264.7 410.4,271.1 410.4,258.4 398.4,258.4 398.4,271.1 387.4,264.7 381.4,275.1 392.4,281.5 
		381.4,287.9 387.4,298.3 398.4,291.9 398.4,304.6 410.4,304.6 410.4,291.9 421.4,298.3 427.4,287.9 416.4,281.5 	"/>
	<polygon points="377.9,314.1 371.9,303.7 360.9,310.1 360.9,297.4 348.9,297.4 348.9,310.1 337.9,303.7 331.9,314.1 342.9,320.5 
		331.9,326.9 337.9,337.3 348.9,330.9 348.9,343.6 360.9,343.6 360.9,330.9 371.9,337.3 377.9,326.9 366.9,320.5 	"/>
	<polygon points="279,314.1 273,303.7 262,310.1 262,297.4 250,297.4 250,310.1 239,303.7 233,314.1 244,320.5 233,326.9 239,337.3 
		250,330.9 250,343.6 262,343.6 262,330.9 273,337.3 279,326.9 268,320.5 	"/>
	<polygon points="180.1,314.1 174.1,303.7 163.1,310.1 163.1,297.4 151.1,297.4 151.1,310.1 140.1,303.7 134.1,314.1 145.1,320.5 
		134.1,326.9 140.1,337.3 151.1,330.9 151.1,343.6 163.1,343.6 163.1,330.9 174.1,337.3 180.1,326.9 169.1,320.5 	"/>
	<polygon points="130.6,195.1 124.6,184.7 113.6,191.1 113.6,178.4 101.6,178.4 101.6,191.1 90.6,184.7 84.6,195.1 95.6,201.5 
		84.6,207.9 90.6,218.3 101.6,211.9 101.6,224.6 113.6,224.6 113.6,211.9 124.6,218.3 130.6,207.9 119.6,201.5 	"/>
	<polygon points="229.6,195.1 223.6,184.7 212.5,191.1 212.5,178.4 200.5,178.4 200.5,191.1 189.5,184.7 183.5,195.1 194.5,201.5 
		183.5,207.9 189.5,218.3 200.5,211.9 200.5,224.6 212.5,224.6 212.5,211.9 223.6,218.3 229.6,207.9 218.5,201.5 	"/>
	<polygon points="328.5,195.1 322.5,184.7 311.5,191.1 311.5,178.4 299.5,178.4 299.5,191.1 288.4,184.7 282.4,195.1 293.5,201.5 
		282.4,207.9 288.4,218.3 299.5,211.9 299.5,224.6 311.5,224.6 311.5,211.9 322.5,218.3 328.5,207.9 317.5,201.5 	"/>
	<polygon points="427.4,195.1 421.4,184.7 410.4,191.1 410.4,178.4 398.4,178.4 398.4,191.1 387.4,184.7 381.4,195.1 392.4,201.5 
		381.4,207.9 387.4,218.3 398.4,211.9 398.4,224.6 410.4,224.6 410.4,211.9 421.4,218.3 427.4,207.9 416.4,201.5 	"/>
	<polygon points="377.9,234.1 371.9,223.7 360.9,230.1 360.9,217.4 348.9,217.4 348.9,230.1 337.9,223.7 331.9,234.1 342.9,240.5 
		331.9,246.9 337.9,257.3 348.9,250.9 348.9,263.6 360.9,263.6 360.9,250.9 371.9,257.3 377.9,246.9 366.9,240.5 	"/>
	<polygon points="279,234.1 273,223.7 262,230.1 262,217.4 250,217.4 250,230.1 239,223.7 233,234.1 244,240.5 233,246.9 239,257.3 
		250,250.9 250,263.6 262,263.6 262,250.9 273,257.3 279,246.9 268,240.5 	"/>
	<polygon points="180.1,234.1 174.1,223.7 163.1,230.1 163.1,217.4 151.1,217.4 151.1,230.1 140.1,223.7 134.1,234.1 145.1,240.5 
		134.1,246.9 140.1,257.3 151.1,250.9 151.1,263.6 163.1,263.6 163.1,250.9 174.1,257.3 180.1,246.9 169.1,240.5 	"/>
</g>
</svg>
