<?xml version="1.0" encoding="utf-8"?>
<!-- Generator: Adobe Illustrator 19.2.0, SVG Export Plug-In . SVG Version: 6.00 Build 0)  -->
<svg version="1.1" id="icon" xmlns="http://www.w3.org/2000/svg" xmlns:xlink="http://www.w3.org/1999/xlink" x="0px" y="0px"
	 viewBox="0 0 512 512" style="enable-background:new 0 0 512 512;" xml:space="preserve">
<style type="text/css">
	.st0{fill:none;stroke:#000000;stroke-width:20;stroke-miterlimit:10;}
</style>
<g>
	<g>
		<line class="st0" x1="156.7" y1="152.4" x2="315.8" y2="152.4"/>
		<g>
			<line class="st0" x1="90.3" y1="219.2" x2="249.4" y2="219.2"/>
			<line class="st0" x1="284.3" y1="219.2" x2="443.5" y2="219.2"/>
		</g>
		<line class="st0" x1="138.2" y1="286" x2="297.3" y2="286"/>
		<g>
			<line class="st0" x1="284.3" y1="352.8" x2="443.5" y2="352.8"/>
			<line class="st0" x1="67" y1="352.8" x2="226.1" y2="352.8"/>
		</g>
		<line class="st0" x1="217.7" y1="419.6" x2="376.8" y2="419.6"/>
	</g>
	<g>
		<path d="M54.5,89.4c0,7.1-2,12.7-5.9,16.5c-3.9,3.9-9.5,5.8-16.6,5.8H18.1V68.9H33c6.9,0,12.2,1.8,15.9,5.3
			C52.6,77.7,54.5,82.8,54.5,89.4z M42.5,89.8c0-3.9-0.8-6.8-2.3-8.7c-1.6-1.9-3.9-2.8-7.1-2.8h-3.4v24h2.6c3.5,0,6.1-1,7.7-3.1
			C41.7,97.1,42.5,94,42.5,89.8z"/>
		<path d="M98.6,68.9v25.8c0,5.6-1.6,9.9-4.8,13c-3.2,3.1-7.7,4.6-13.7,4.6c-5.8,0-10.3-1.5-13.5-4.5s-4.7-7.3-4.7-12.9v-26h11.6V94
			c0,3,0.6,5.2,1.7,6.6c1.1,1.4,2.8,2.1,5,2.1c2.4,0,4.1-0.7,5.1-2c1.1-1.4,1.6-3.6,1.6-6.7V68.9H98.6z"/>
		<path d="M135.6,98.7c0,2.7-0.7,5-2,7.1c-1.3,2.1-3.3,3.7-5.8,4.8c-2.5,1.1-5.5,1.7-8.9,1.7c-2.9,0-5.2-0.2-7.2-0.6s-3.9-1.1-6-2.1
			V99.3c2.2,1.1,4.5,2,6.9,2.7c2.4,0.6,4.6,1,6.6,1c1.7,0,3-0.3,3.8-0.9c0.8-0.6,1.2-1.4,1.2-2.3c0-0.6-0.2-1.1-0.5-1.5
			s-0.8-0.9-1.6-1.3c-0.7-0.4-2.6-1.4-5.7-2.8c-2.8-1.3-4.9-2.5-6.3-3.7c-1.4-1.2-2.4-2.6-3.1-4.1c-0.7-1.5-1-3.4-1-5.5
			c0-3.9,1.4-7,4.3-9.2c2.9-2.2,6.8-3.3,11.8-3.3c4.4,0,9,1,13.6,3.1l-3.5,8.9c-4-1.8-7.5-2.8-10.4-2.8c-1.5,0-2.6,0.3-3.3,0.8
			c-0.7,0.5-1,1.2-1,2c0,0.8,0.4,1.6,1.3,2.3c0.9,0.7,3.2,1.9,7.1,3.6c3.7,1.7,6.3,3.4,7.7,5.3S135.6,95.8,135.6,98.7z"/>
		<path d="M161.1,111.7h-11.6V78.4h-10.5v-9.5h32.5v9.5h-10.4V111.7z"/>
	</g>
</g>
</svg>
