<?xml version="1.0" encoding="utf-8"?>
<!-- Generator: Adobe Illustrator 19.2.0, SVG Export Plug-In . SVG Version: 6.00 Build 0)  -->
<svg version="1.1" id="icon" xmlns="http://www.w3.org/2000/svg" xmlns:xlink="http://www.w3.org/1999/xlink" x="0px" y="0px"
	 viewBox="0 0 512 512" style="enable-background:new 0 0 512 512;" xml:space="preserve">
<style type="text/css">
	.st0{fill:none;stroke:#000000;stroke-width:20;stroke-miterlimit:10;}
</style>
<g>
	<g>
		<line class="st0" x1="156.7" y1="152.4" x2="315.8" y2="152.4"/>
		<g>
			<line class="st0" x1="90.3" y1="219.2" x2="249.4" y2="219.2"/>
			<line class="st0" x1="284.3" y1="219.2" x2="443.5" y2="219.2"/>
		</g>
		<line class="st0" x1="138.2" y1="286" x2="297.3" y2="286"/>
		<g>
			<line class="st0" x1="284.3" y1="352.8" x2="443.5" y2="352.8"/>
			<line class="st0" x1="67" y1="352.8" x2="226.1" y2="352.8"/>
		</g>
		<line class="st0" x1="217.7" y1="419.6" x2="376.8" y2="419.6"/>
	</g>
	<g>
		<path d="M46.1,98.7c0,2.7-0.7,5-2,7.1c-1.3,2.1-3.3,3.7-5.8,4.8c-2.5,1.1-5.5,1.7-8.9,1.7c-2.9,0-5.2-0.2-7.2-0.6s-3.9-1.1-6-2.1
			V99.3c2.2,1.1,4.5,2,6.9,2.7c2.4,0.6,4.6,1,6.6,1c1.7,0,3-0.3,3.8-0.9c0.8-0.6,1.2-1.4,1.2-2.3c0-0.6-0.2-1.1-0.5-1.5
			s-0.8-0.9-1.6-1.3c-0.7-0.4-2.6-1.4-5.7-2.8c-2.8-1.3-4.9-2.5-6.3-3.7c-1.4-1.2-2.4-2.6-3.1-4.1c-0.7-1.5-1-3.4-1-5.5
			c0-3.9,1.4-7,4.3-9.2c2.9-2.2,6.8-3.3,11.8-3.3c4.4,0,9,1,13.6,3.1l-3.5,8.9c-4-1.8-7.5-2.8-10.4-2.8c-1.5,0-2.6,0.3-3.3,0.8
			c-0.7,0.5-1,1.2-1,2c0,0.8,0.4,1.6,1.3,2.3c0.9,0.7,3.2,1.9,7.1,3.6c3.7,1.7,6.3,3.4,7.7,5.3S46.1,95.8,46.1,98.7z"/>
		<path d="M71.4,111.7l-8.8-30.8h-0.3c0.4,5.3,0.6,9.3,0.6,12.2v18.6H52.8V68.9h15.4l8.9,30.4h0.2l8.8-30.4h15.4v42.8H90.9V93
			c0-1,0-2.1,0-3.3c0-1.2,0.2-4.1,0.4-8.8h-0.3l-8.6,30.8H71.4z"/>
		<path d="M150.8,90.3c0,7.2-1.8,12.7-5.3,16.4c-3.5,3.8-8.7,5.6-15.5,5.6c-6.7,0-11.9-1.9-15.5-5.7c-3.6-3.8-5.4-9.3-5.4-16.5
			c0-7.1,1.8-12.6,5.3-16.3c3.6-3.8,8.7-5.6,15.5-5.6c6.8,0,12,1.9,15.5,5.6C149.1,77.6,150.8,83,150.8,90.3z M121.4,90.3
			c0,8.3,2.9,12.4,8.6,12.4c2.9,0,5.1-1,6.5-3c1.4-2,2.1-5.1,2.1-9.4c0-4.3-0.7-7.4-2.2-9.5c-1.4-2-3.6-3.1-6.4-3.1
			C124.3,77.7,121.4,81.9,121.4,90.3z"/>
		<path d="M195.2,111.7h-13.1l-8.5-16.4l-3.4,2.1v14.3h-11.6V68.9h11.6v18.6c0.6-1.2,1.8-3,3.5-5.5l9-13.1h12.7l-13.5,19.2
			L195.2,111.7z"/>
		<path d="M225.2,111.7h-25.4V68.9h25.4v9.3h-13.9v6.7h12.8v9.3h-12.8v8.1h13.9V111.7z"/>
	</g>
</g>
</svg>
