<svg version="1.1" id="icon" xmlns="http://www.w3.org/2000/svg" x="0" y="0" viewBox="0 0 512 512" xml:space="preserve"><style type="text/css">.st2{fill:#18a1cb}</style><path d="M403.2 392.6H101.3c-48.4 0-87.8-39.4-87.8-87.8 0-48.3 39.3-87.7 87.6-87.8 7.9-26.4 23.8-50.1 45.4-67.4 24.1-19.4 54.5-30.1 85.6-30.1 39.2 0 76 16.6 102 45.7 8-2.5 16.2-3.7 24.7-3.7 31.4 0 60 17.7 74.1 45.4 38.9 12.7 65.7 49.3 65.7 90.6-.1 52.4-42.9 95.1-95.4 95.1z" fill="#fff"/><path d="M130.6 426.3l-6-10.4-11 6.3v-12.7h-12v12.7l-11-6.3-6 10.4 11 6.3-11 6.4 6 10.4 11-6.4v12.7h12V443l11 6.4 6-10.4-11-6.4zm99 0l-6-10.4-11.1 6.3v-12.7h-12v12.7l-11-6.3-6 10.4 11 6.3-11 6.4 6 10.4 11-6.4v12.7h12V443l11.1 6.4 6-10.4-11.1-6.4zm98.9 0l-6-10.4-11 6.3v-12.7h-12v12.7l-11.1-6.3-6 10.4 11.1 6.3-11.1 6.4 6 10.4 11.1-6.4v12.7h12V443l11 6.4 6-10.4-11-6.4zm-49.5 39l-6-10.4-11 6.3v-12.7h-12v12.7l-11-6.3-6 10.4 11 6.3-11 6.4 6 10.4 11-6.4v12.7h12V482l11 6.4 6-10.4-11-6.4zm-98.9 0l-6-10.4-11 6.3v-12.7h-12v12.7l-11-6.3-6 10.4 11 6.3-11 6.4 6 10.4 11-6.4v12.7h12V482l11 6.4 6-10.4-11-6.4z" fill="#3a7ba5"/><path class="st2" d="M484.8 455.3c2.5-3.5 4-7.7 4-12.3 0-11.7-9.5-21.3-21.3-21.3-5.9 0-11.2 2.4-15 6.2l8.5 8.5c1.7-1.7 4-2.7 6.5-2.7 5.1 0 9.3 4.1 9.3 9.3 0 5.1-4.1 9.2-9.2 9.2H357v12h115.5c7.7 0 14 6.3 14 14s-6.3 14-14 14c-3.9 0-7.4-1.6-9.9-4.1l-8.5 8.5c4.7 4.7 11.2 7.6 18.4 7.6 14.3 0 26-11.7 26-26 0-9.9-5.6-18.5-13.7-22.9z"/><path class="st2" d="M437.4 421.7c0-11.7-9.5-21.3-21.3-21.3-5.9 0-11.2 2.4-15 6.2l8.5 8.5c1.7-1.7 4-2.7 6.5-2.7 5.1 0 9.3 4.1 9.3 9.3s-4.1 9.3-9.3 9.3H357v12h59.2c11.7 0 21.2-9.6 21.2-21.3z"/></svg>