<svg version="1.1" id="icon" xmlns="http://www.w3.org/2000/svg" x="0" y="0" viewBox="0 0 512 512" xml:space="preserve"><style type="text/css">.st1{fill:#3a7ba5}</style><path d="M432.8 206.7c-14.2-27.7-42.8-45.4-74.1-45.4-8.4 0-16.7 1.3-24.7 3.7-26-29.1-62.7-45.7-102-45.7-31.1 0-61.5 10.7-85.6 30.1-21.6 17.4-37.5 41.1-45.4 67.4-48.3.2-87.6 39.5-87.6 87.8 0 48.4 39.4 87.8 87.8 87.8H403c52.6 0 95.3-42.8 95.3-95.3.2-41.1-26.6-77.7-65.5-90.4z" fill="#fff"/><path class="st1" d="M124.6 415.9l-11 6.3v-12.7h-12v12.7l-11-6.3-6 10.4 11 6.3-11 6.4 6 10.4 11-6.4v12.7h12V443l11 6.4 6-10.4-11-6.4 11-6.3zm99 0l-11.1 6.3v-12.7h-12v12.7l-11-6.3-6 10.4 11 6.3-11 6.4 6 10.4 11-6.4v12.7h12V443l11.1 6.4 6-10.4-11.1-6.4 11.1-6.3zm98.9 0l-11 6.3v-12.7h-12v12.7l-11.1-6.3-6 10.4 11.1 6.3-11.1 6.4 6 10.4 11.1-6.4v12.7h12V443l11 6.4 6-10.4-11-6.4 11-6.3zm98.9 0l-11 6.3v-12.7h-12v12.7l-11-6.3-6 10.4 11 6.3-11 6.4 6 10.4 11-6.4v12.7h12V443l11 6.4 6-10.4-11-6.4 11-6.3zm-279.7 63.4c0 8.5 6.9 15.4 15.4 15.4s15.4-6.9 15.4-15.4-15.4-30.8-15.4-30.8-15.4 22.3-15.4 30.8zm98.9 0c0 8.5 6.9 15.4 15.4 15.4s15.4-6.9 15.4-15.4-15.4-30.8-15.4-30.8-15.4 22.3-15.4 30.8zm98.9 0c0 8.5 6.9 15.4 15.4 15.4s15.4-6.9 15.4-15.4-15.4-30.8-15.4-30.8-15.4 22.3-15.4 30.8z"/><path fill="#18a1cb" d="M46.4 159.9L66 105.7l19.2 81.5 14.5-71.5 17.9 35.4 14.9-71-95-35z"/><path class="st1" d="M135 68.2L36.5 31.9 17.6 25l-4.1 11.2 24 8.9 95 35 23.8 8.8 4.1-11.3z"/></svg>