<svg version="1.1" id="icon" xmlns="http://www.w3.org/2000/svg" x="0" y="0" viewBox="0 0 512 512" xml:space="preserve"><style type="text/css">.st0{fill:#3a7ba5}</style><path class="st0" d="M92.2 204.2c0 8.5 6.9 15.4 15.4 15.4s15.4-6.9 15.4-15.4-15.4-30.8-15.4-30.8-15.4 22.3-15.4 30.8zm98.9 0c0 8.5 6.9 15.4 15.4 15.4s15.4-6.9 15.4-15.4-15.4-30.8-15.4-30.8-15.4 22.3-15.4 30.8zm98.9 0c0 8.5 6.9 15.4 15.4 15.4s15.4-6.9 15.4-15.4-15.4-30.8-15.4-30.8-15.4 22.3-15.4 30.8zm114.4 15.4c8.5 0 15.4-6.9 15.4-15.4s-15.4-30.8-15.4-30.8-15.4 22.3-15.4 30.8 6.9 15.4 15.4 15.4zm-262.7 23.6c0 8.5 6.9 15.4 15.4 15.4s15.4-6.9 15.4-15.4-15.4-30.8-15.4-30.8-15.4 22.3-15.4 30.8zm98.9 0c0 8.5 6.9 15.4 15.4 15.4s15.4-6.9 15.4-15.4-15.4-30.8-15.4-30.8-15.4 22.3-15.4 30.8zm98.9 0c0 8.5 6.9 15.4 15.4 15.4s15.4-6.9 15.4-15.4-15.4-30.8-15.4-30.8-15.4 22.3-15.4 30.8zm-247.3 41c0 8.5 6.9 15.4 15.4 15.4s15.4-6.9 15.4-15.4-15.4-30.8-15.4-30.8-15.4 22.3-15.4 30.8zm98.9 0c0 8.5 6.9 15.4 15.4 15.4s15.4-6.9 15.4-15.4-15.4-30.8-15.4-30.8-15.4 22.3-15.4 30.8zm98.9 0c0 8.5 6.9 15.4 15.4 15.4s15.4-6.9 15.4-15.4-15.4-30.8-15.4-30.8-15.4 22.3-15.4 30.8zm99 0c0 8.5 6.9 15.4 15.4 15.4s15.4-6.9 15.4-15.4-15.4-30.8-15.4-30.8-15.4 22.3-15.4 30.8zm-247.3 39c0 8.5 6.9 15.4 15.4 15.4s15.4-6.9 15.4-15.4-15.4-30.8-15.4-30.8-15.4 22.3-15.4 30.8zm98.9 0c0 8.5 6.9 15.4 15.4 15.4s15.4-6.9 15.4-15.4-15.4-30.8-15.4-30.8-15.4 22.3-15.4 30.8zm98.9 0c0 8.5 6.9 15.4 15.4 15.4s15.4-6.9 15.4-15.4-15.4-30.8-15.4-30.8-15.4 22.3-15.4 30.8z"/><path fill="#18a1cb" d="M46.4 159.9L66 105.7l19.2 81.5 14.5-71.5 17.9 35.4 14.9-71-95-35z"/><path class="st0" d="M135 68.2L36.5 31.9 17.6 25l-4.1 11.2 24 8.9 95 35 23.8 8.8 4.1-11.3z"/></svg>