<svg version="1.1" xmlns="http://www.w3.org/2000/svg" x="0" y="0" viewBox="0 0 512 512" xml:space="preserve"><path d="M314.3 349.9c-51.8 0-93.9-42.1-93.9-93.9 0-51.8 42.1-93.9 93.9-93.9 51.8 0 93.9 42.1 93.9 93.9-.1 51.8-42.2 93.9-93.9 93.9zm79.765-2.387l14.142-14.142 54.164 54.164-14.142 14.142zM166.132 124.494l14.142-14.142 54.164 54.164-14.142 14.142zm2.528 265.498l54.164-54.164 14.142 14.142-54.164 54.164zM391.538 162.06l54.164-54.165 14.142 14.142-54.164 54.164zM306 377.1h20v76.6h-20zm-3.5-318.8h20v76.6h-20zm-186 189.5h76.6v20h-76.6zm318.9-3.6H512v20h-76.6zM71.9 387.8V81.1c-.1-3.6-3-6.5-6.6-6.5-3.6 0-6.5 2.9-6.6 6.5v306.8c-12.3 3-21.4 14-21.4 27.2 0 15.4 12.5 28 28 28s28-12.5 28-28c0-13.3-9.2-24.3-21.4-27.3z"/><path d="M65.3 478.3C30.4 478.3 2 449.9 2 415c0-20.8 10.3-40.2 27.2-52V69.8c0-19.9 16.2-36.1 36.1-36.1s36.1 16.2 36.1 36.1V363c16.9 11.8 27.2 31.2 27.2 52 0 34.9-28.4 63.3-63.3 63.3zm0-424.6c-8.9 0-16.1 7.2-16.1 16.1v304.6l-5.1 2.9C30.5 384.9 22 399.4 22 415c0 23.9 19.4 43.3 43.3 43.3s43.3-19.4 43.3-43.3c0-15.6-8.5-30.1-22.1-37.7l-5.1-2.9V69.8c0-8.9-7.3-16.1-16.1-16.1z"/><path d="M76.3 129.9h8.9v10h-8.9zm0 27.9h8.9v10h-8.9zm0 28h8.9v10h-8.9zm0 28h8.9v10h-8.9zm0 27.9h8.9v10h-8.9zm0 28h8.9v10h-8.9zm0 28h8.9v10h-8.9zm0 28h8.9v10h-8.9z"/></svg>