<svg version="1.1" xmlns="http://www.w3.org/2000/svg" x="0" y="0" viewBox="0 0 512 512" xml:space="preserve"><path d="M367.8 161.8c-1.7-23.6-12.1-45.5-29.2-61.6 8.9-3.7 18.5-5.6 28.4-5.6 40.7 0 73.9 33.1 73.9 73.9 0 13-3.4 25.2-9.3 35.8.4.8.9 1.6 1.3 2.4 5.7 1.9 11.2 4.3 16.4 7.1 7.4-13.4 11.7-28.9 11.7-45.3 0-51.8-42.1-93.9-93.9-93.9-18.6 0-36.5 5.4-52 15.7l-12.5 8.3L315 107c18.9 12.6 30.8 32.8 32.7 55.1 3.6-.5 7.2-.7 10.9-.7 3.1-.1 6.2.1 9.2.4z"/><path d="M403.2 392.6H101.3c-48.4 0-87.8-39.4-87.8-87.8 0-48.3 39.3-87.7 87.6-87.8 7.9-26.4 23.8-50.1 45.4-67.4 24.1-19.4 54.5-30.1 85.6-30.1 39.2 0 76 16.6 102 45.7 8-2.5 16.2-3.7 24.7-3.7 31.4 0 60 17.7 74.1 45.4 38.9 12.7 65.7 49.3 65.7 90.6-.1 52.4-42.9 95.1-95.4 95.1zM101.3 236.9c-37.4 0-67.8 30.4-67.8 67.8s30.4 67.8 67.8 67.8h301.8c41.5 0 75.3-33.8 75.3-75.3 0-33.9-22.8-63.8-55.5-72.7l-4.6-1.3-1.9-4.3c-10.1-22.9-32.9-37.7-57.9-37.7-8.3 0-16.4 1.6-24 4.7l-6.9 2.8-4.7-5.8c-22.3-27.8-55.5-43.7-91-43.7-54.6 0-101.3 37.1-113.6 90.2l-2 8.5-8.7-.8c-2.1-.1-4.2-.2-6.3-.2zm29.3 189.4l-6-10.4-11 6.3v-12.7h-12v12.7l-11-6.3-6 10.4 11 6.3-11 6.4 6 10.4 11-6.4v12.7h12V443l11 6.4 6-10.4-11-6.4zm99 0l-6-10.4-11.1 6.3v-12.7h-12v12.7l-11-6.3-6 10.4 11 6.3-11 6.4 6 10.4 11-6.4v12.7h12V443l11.1 6.4 6-10.4-11.1-6.4zm98.9 0l-6-10.4-11 6.3v-12.7h-12v12.7l-11.1-6.3-6 10.4 11.1 6.3-11.1 6.4 6 10.4 11.1-6.4v12.7h12V443l11 6.4 6-10.4-11-6.4zm98.9 0l-6-10.4-11 6.3v-12.7h-12v12.7l-11-6.3-6 10.4 11 6.3-11 6.4 6 10.4 11-6.4v12.7h12V443l11 6.4 6-10.4-11-6.4zm-49.5 39l-6-10.4-11 6.3v-12.7h-12v12.7l-11-6.3-6 10.4 11 6.3-11 6.4 6 10.4 11-6.4v12.7h12V482l11 6.4 6-10.4-11-6.4zm-98.9 0l-6-10.4-11 6.3v-12.7h-12v12.7l-11-6.3-6 10.4 11 6.3-11 6.4 6 10.4 11-6.4v12.7h12V482l11 6.4 6-10.4-11-6.4zm-98.9 0l-6-10.4-11 6.3v-12.7h-12v12.7l-11-6.3-6 10.4 11 6.3-11 6.4 6 10.4 11-6.4v12.7h12V482l11 6.4 6-10.4-11-6.4z"/></svg>