<svg version="1.1" xmlns="http://www.w3.org/2000/svg" x="0" y="0" viewBox="0 0 512 512" xml:space="preserve"><path d="M432.8 206.7c-14.2-27.7-42.8-45.4-74.1-45.4-8.4 0-16.7 1.3-24.7 3.7-26-29.1-62.7-45.7-102-45.7-31.1 0-61.5 10.7-85.6 30.1-21.6 17.4-37.5 41.1-45.4 67.4-48.3.2-87.6 39.5-87.6 87.8 0 48.4 39.4 87.8 87.8 87.8H403c52.6 0 95.3-42.8 95.3-95.3.2-41.1-26.6-77.7-65.5-90.4zM124.6 415.9l-11 6.3v-12.7h-12v12.7l-11-6.3-6 10.4 11 6.3-11 6.4 6 10.4 11-6.4v12.7h12V443l11 6.4 6-10.4-11-6.4 11-6.3zm99 0l-11.1 6.3v-12.7h-12v12.7l-11-6.3-6 10.4 11 6.3-11 6.4 6 10.4 11-6.4v12.7h12V443l11.1 6.4 6-10.4-11.1-6.4 11.1-6.3zm98.9 0l-11 6.3v-12.7h-12v12.7l-11.1-6.3-6 10.4 11.1 6.3-11.1 6.4 6 10.4 11.1-6.4v12.7h12V443l11 6.4 6-10.4-11-6.4 11-6.3zm98.9 0l-11 6.3v-12.7h-12v12.7l-11-6.3-6 10.4 11 6.3-11 6.4 6 10.4 11-6.4v12.7h12V443l11 6.4 6-10.4-11-6.4 11-6.3zm-49.5 39l-11 6.3v-12.7h-12v12.7l-11-6.3-6 10.4 11 6.3-11 6.4 6 10.4 11-6.4v12.7h12V482l11 6.4 6-10.4-11-6.4 11-6.3zm-98.9 0l-11 6.3v-12.7h-12v12.7l-11-6.3-6 10.4 11 6.3-11 6.4 6 10.4 11-6.4v12.7h12V482l11 6.4 6-10.4-11-6.4 11-6.3zm-98.9 0l-11 6.3v-12.7h-12v12.7l-11-6.3-6 10.4 11 6.3-11 6.4 6 10.4 11-6.4v12.7h12V482l11 6.4 6-10.4-11-6.4 11-6.3z"/></svg>