<svg version="1.1" xmlns="http://www.w3.org/2000/svg" x="0" y="0" viewBox="0 0 512 512" xml:space="preserve"><path d="M256 349.9c-51.8 0-93.9-42.1-93.9-93.9 0-51.8 42.1-93.9 93.9-93.9 51.8 0 93.9 42.1 93.9 93.9 0 51.8-42.1 93.9-93.9 93.9zm79.845-2.437l14.142-14.142 54.164 54.164-14.142 14.142zM107.842 124.515l14.142-14.142 54.163 54.164-14.142 14.142zm2.528 265.498l54.163-54.164 14.142 14.142-54.164 54.164zm222.948-228.004l54.164-54.164 14.142 14.142-54.164 54.164zM247.8 377.1h20v76.6h-20zm-3.6-318.8h20v76.6h-20zM58.3 247.8h76.6v20H58.3zm318.8-3.6h76.6v20h-76.6z"/></svg>