<svg version="1.1" id="icon" xmlns="http://www.w3.org/2000/svg" x="0" y="0" viewBox="0 0 512 512" xml:space="preserve"><style type="text/css">.st0{fill:#f8a724}</style><path transform="rotate(-45.001 425.754 83.765)" class="st0" d="M387.4 73.8H464v20h-76.6z"/><path class="st0" d="M302.5 0h20v76.6h-20z"/><path d="M403.2 392.6H101.3c-48.4 0-87.8-39.4-87.8-87.8 0-48.3 39.3-87.7 87.6-87.8 7.9-26.4 23.8-50.1 45.4-67.4 24.1-19.4 54.5-30.1 85.6-30.1 39.2 0 76 16.6 102 45.7 8-2.5 16.2-3.7 24.7-3.7 31.4 0 60 17.7 74.1 45.4 38.9 12.7 65.7 49.3 65.7 90.6-.1 52.4-42.9 95.1-95.4 95.1z" fill="#fff"/><path class="st0" d="M435.4 186v2.1c2.1 2.8 4 5.7 5.7 8.8 6.5 2.4 12.6 5.5 18.4 9.1H512v-20h-76.6zM232 107.4h1.3l1.1-1.1-54.2-54.2-14.1 14.1 42.9 42.9c7.6-1.1 15.3-1.7 23-1.7zm105.8 44.2c6.8-1.5 13.8-2.3 20.8-2.3 14.4 0 28.3 3.2 40.9 9.1-14.9-32.2-47.5-54.6-85.2-54.6-14.6 0-28.5 3.4-40.9 9.4 24.2 7.1 46.5 20.2 64.4 38.4z"/></svg>