<svg version="1.1" id="icon" xmlns="http://www.w3.org/2000/svg" x="0" y="0" viewBox="0 0 512 512" xml:space="preserve"><style type="text/css">.st1{fill:#f8a724}</style><path d="M403.2 392.6H101.3c-48.4 0-87.8-39.4-87.8-87.8 0-48.3 39.3-87.7 87.6-87.8 7.9-26.4 23.8-50.1 45.4-67.4 24.1-19.4 54.5-30.1 85.6-30.1 39.2 0 76 16.6 102 45.7 8-2.5 16.2-3.7 24.7-3.7 31.4 0 60 17.7 74.1 45.4 38.9 12.7 65.7 49.3 65.7 90.6-.1 52.4-42.9 95.1-95.4 95.1z" fill="#fff"/><path class="st1" d="M345.7 150.2c4.3-.6 8.6-.9 12.9-.9 34.3 0 65.5 18.1 82.5 47.6 4.5 1.7 8.9 3.7 13.2 6 4.2-10.7 6.6-22.3 6.6-34.4 0-51.8-42.1-93.9-93.9-93.9-18.6 0-36.5 5.4-52 15.7l-12.5 8.3L315 107c15.5 10.2 26.3 25.7 30.7 43.2z"/><path d="M92.2 440.3c0 8.5 6.9 15.4 15.4 15.4s15.4-6.9 15.4-15.4-15.4-30.8-15.4-30.8-15.4 22.3-15.4 30.8zm296.8 0c0 8.5 6.9 15.4 15.4 15.4s15.4-6.9 15.4-15.4-15.4-30.8-15.4-30.8-15.4 22.3-15.4 30.8zm-247.3 39c0 8.5 6.9 15.4 15.4 15.4s15.4-6.9 15.4-15.4-15.4-30.8-15.4-30.8-15.4 22.3-15.4 30.8zm197.8 0c0 8.5 6.9 15.4 15.4 15.4s15.4-6.9 15.4-15.4-15.4-30.8-15.4-30.8-15.4 22.3-15.4 30.8z" fill="#3a7ba5"/><path class="st1" d="M252.9 409.5h28.5l-28.5 27.8h28.5l-44.7 62.4 19-54.2h-25.1z"/></svg>