<svg version="1.1" id="icon" xmlns="http://www.w3.org/2000/svg" x="0" y="0" viewBox="0 0 512 512" xml:space="preserve"><style type="text/css">.st1{fill:#18a1cb}</style><path d="M403.2 392.6c52.6 0 95.3-42.8 95.3-95.3 0-41.3-26.8-77.9-65.7-90.6-14.2-27.7-42.8-45.4-74.1-45.4-8.4 0-16.7 1.3-24.7 3.7-26-29.1-62.7-45.7-102-45.7-31.1 0-61.5 10.7-85.6 30.1-21.6 17.4-37.5 41.1-45.4 67.4-48.3.2-87.6 39.5-87.6 87.8 0 48.4 39.4 87.8 87.8 87.8h302z" fill="#fff"/><path class="st1" d="M484.8 455.3c2.5-3.5 4-7.7 4-12.3 0-11.7-9.5-21.3-21.3-21.3-5.9 0-11.2 2.4-15 6.2l8.5 8.5c1.7-1.7 4-2.7 6.5-2.7 5.1 0 9.3 4.1 9.3 9.3 0 5.1-4.1 9.2-9.2 9.2H357v12h115.5c7.7 0 14 6.3 14 14s-6.3 14-14 14c-3.9 0-7.4-1.6-9.9-4.1l-8.5 8.5c4.7 4.7 11.2 7.6 18.4 7.6 14.3 0 26-11.7 26-26 0-9.9-5.6-18.5-13.7-22.9z"/><path class="st1" d="M416.2 431H357v12h59.2c11.7 0 21.3-9.5 21.3-21.3s-9.5-21.3-21.3-21.3c-5.9 0-11.2 2.4-15 6.2l8.5 8.5c1.7-1.7 4-2.7 6.5-2.7 5.1 0 9.3 4.1 9.3 9.3s-4.2 9.3-9.3 9.3z"/><path d="M92.2 440.3c0 8.5 6.9 15.4 15.4 15.4s15.4-6.9 15.4-15.4-15.4-30.8-15.4-30.8-15.4 22.3-15.4 30.8zm98.9 0c0 8.5 6.9 15.4 15.4 15.4s15.4-6.9 15.4-15.4-15.4-30.8-15.4-30.8-15.4 22.3-15.4 30.8zm98.9 0c0 8.5 6.9 15.4 15.4 15.4s15.4-6.9 15.4-15.4-15.4-30.8-15.4-30.8-15.4 22.3-15.4 30.8zm-148.3 39c0 8.5 6.9 15.4 15.4 15.4s15.4-6.9 15.4-15.4-15.4-30.8-15.4-30.8-15.4 22.3-15.4 30.8zm98.9 0c0 8.5 6.9 15.4 15.4 15.4s15.4-6.9 15.4-15.4-15.4-30.8-15.4-30.8-15.4 22.3-15.4 30.8z" fill="#3a7ba5"/></svg>