<svg version="1.1" id="icon" xmlns="http://www.w3.org/2000/svg" x="0" y="0" viewBox="0 0 512 512" xml:space="preserve"><style type="text/css">.st1{fill:#3a7ba5}</style><path d="M432.8 206.7c-14.2-27.7-42.8-45.4-74.1-45.4-8.4 0-16.7 1.3-24.7 3.7-26-29.1-62.7-45.7-102-45.7-31.1 0-61.5 10.7-85.6 30.1-21.6 17.4-37.5 41.1-45.4 67.4-48.3.2-87.6 39.5-87.6 87.8 0 48.4 39.4 87.8 87.8 87.8H403c52.6 0 95.3-42.8 95.3-95.3.2-41.1-26.6-77.7-65.5-90.4z" fill="#18a1cb"/><circle class="st1" cx="107.6" cy="440.3" r="15.4"/><circle class="st1" cx="206.5" cy="440.3" r="15.4"/><circle class="st1" cx="305.5" cy="440.3" r="15.4"/><circle class="st1" cx="404.4" cy="440.3" r="15.4"/><circle class="st1" cx="157.1" cy="479.3" r="15.4"/><circle class="st1" cx="256" cy="479.3" r="15.4"/><circle class="st1" cx="354.9" cy="479.3" r="15.4"/></svg>