<svg version="1.1" id="icon" xmlns="http://www.w3.org/2000/svg" x="0" y="0" viewBox="0 0 512 512" xml:space="preserve"><style type="text/css">.st0{fill:#fff}</style><path class="st0" d="M314.3 291.6c-51.8 0-93.9-42.1-93.9-93.9 0-51.8 42.1-93.9 93.9-93.9 51.8 0 93.9 42.1 93.9 93.9-.1 51.8-42.2 93.9-93.9 93.9z"/><path transform="rotate(-45.001 428.238 309.22)" class="st0" d="M418.2 270.9h20v76.6h-20z"/><path transform="rotate(-45.001 200.299 86.25)" class="st0" d="M190.3 47.9h20v76.6h-20z"/><path transform="rotate(-45.001 425.754 83.765)" class="st0" d="M387.4 73.8H464v20h-76.6z"/><path class="st0" d="M306 318.8h20v76.6h-20zM302.5 0h20v76.6h-20zm-186 189.5h76.6v20h-76.6zm318.9-3.5H512v20h-76.6zM201.2 430.3H57.7c-25.9 0-47-21.1-47-47 0-24.6 19-44.8 43-46.8 4.3-12.1 12-22.9 22.1-31.1 12.4-10 28-15.5 44-15.5 19.1 0 37 7.6 50.2 21.1 3.3-.8 6.6-1.1 10-1.1 16.2 0 31 8.7 38.9 22.5 19.5 7.3 32.8 26.2 32.8 47.4 0 27.8-22.6 50.5-50.5 50.5zM217 311.6l19.9-19.9-14.1-14.1-23.7 23.7c6.6 2.3 12.6 5.8 17.9 10.3z"/></svg>