<svg version="1.1" xmlns="http://www.w3.org/2000/svg" x="0" y="0" viewBox="0 0 512 512" xml:space="preserve"><path d="M367 262.4c-18.6 0-36.5-5.4-52-15.7l-12.5-8.3L315 230c20.7-13.8 33-36.8 33-61.5 0-24.8-12.3-47.8-33-61.5l-12.5-8.3 12.5-8.3c15.4-10.3 33.4-15.7 52-15.7 51.8 0 93.9 42.1 93.9 93.9-.1 51.6-42.2 93.8-93.9 93.8z" fill="#f8a724"/><path d="M201.2 430.3H57.7c-25.9 0-47-21.1-47-47 0-24.6 19-44.8 43-46.8 4.3-12.1 12-22.9 22.1-31.1 12.4-10 28-15.5 44-15.5 19.1 0 37 7.6 50.2 21.1 3.3-.8 6.6-1.1 10-1.1 16.2 0 31 8.7 38.9 22.5 19.5 7.3 32.8 26.2 32.8 47.4 0 27.8-22.6 50.5-50.5 50.5z" fill="#18a1cb"/></svg>