<svg version="1.1" id="icon" xmlns="http://www.w3.org/2000/svg" x="0" y="0" viewBox="0 0 512 512" xml:space="preserve"><style type="text/css">.st0{fill:#fff}</style><path class="st0" d="M314.3 123.9c28.6 0 53.5 16.4 65.7 40.3 9.2 2.4 17.8 6.4 25.5 11.7-9.9-41.2-47.1-71.9-91.3-71.9-20.7 0-39.9 6.7-55.4 18.1 9 1.8 17.7 4.4 26.1 8 9-4.1 18.9-6.2 29.4-6.2zm-79.8-17.6l-54.2-54.2-14.1 14.1 53.7 53.7c.4 0 .7-.1 1.1-.1l13.5-13.5z"/><path transform="rotate(-45.001 425.754 83.765)" class="st0" d="M387.4 73.8H464v20h-76.6z"/><path class="st0" d="M302.5 0h20v76.6h-20zm132.9 186H512v20h-76.6z"/><path class="st0" d="M432.8 206.7c-14.2-27.7-42.8-45.4-74.1-45.4-8.4 0-16.7 1.3-24.7 3.7-26-29.1-62.7-45.7-102-45.7-31.1 0-61.5 10.7-85.6 30.1-1.5 1.2-3 2.5-4.4 3.7-7.1-2.3-14.5-3.6-22.2-3.6-16 0-31.6 5.5-44 15.5-10.1 8.1-17.8 19-22.1 31.1-24.1 2-43 22.3-43 46.8 0 10.6 3.5 20.4 9.5 28.3-4.3 10.3-6.6 21.6-6.6 33.5 0 48.4 39.4 87.8 87.8 87.8h301.8c52.6 0 95.3-42.8 95.3-95.3 0-41.2-26.8-77.8-65.7-90.5zM30.7 243c0-14.9 12.1-27 27-27 .8 0 1.6 0 2.5.1l8.7.8 2-8.5c5.3-22.9 25.4-38.8 48.9-38.8 2.1 0 4.1.1 6.1.4 7.2.9 14 3.3 20.1 7 4.9 3 9.3 6.8 13 11.4l4.7 5.8 6.9-2.8c3-1.2 6.2-1.9 9.4-1.9 9.8 0 18.7 5.8 22.7 14.8l1.9 4.3 4.6 1.3c13.2 3.6 22.5 15.7 22.5 29.5 0 16.9-13.7 30.6-30.6 30.6H57.7a27 27 0 0 1-12.6-3.1c-6.2-3.3-11.1-9-13.2-15.8-.8-2.6-1.2-5.3-1.2-8.1zm372.5 129.6H101.3c-37.4 0-67.8-30.4-67.8-67.8 0-6.9 1-13.6 3-19.8 6.4 3.2 13.6 5.1 21.2 5.1h143.5c27.9 0 50.6-22.7 50.6-50.6 0-21.2-13.3-40-32.8-47.4-7.9-13.8-22.7-22.5-38.9-22.5-3.4 0-6.8.4-10 1.1-2.7-2.8-5.7-5.3-8.8-7.6 19.7-15 44.3-23.8 70.8-23.8 35.5 0 68.7 15.9 91 43.7l4.7 5.8 6.9-2.8c7.6-3.1 15.7-4.7 24-4.7 25 0 47.7 14.8 57.9 37.7l1.9 4.3 4.6 1.3c32.7 8.9 55.5 38.8 55.5 72.7-.1 41.5-33.9 75.3-75.4 75.3z"/></svg>