<svg version="1.1" id="icon" xmlns="http://www.w3.org/2000/svg" x="0" y="0" viewBox="0 0 512 512" xml:space="preserve"><style type="text/css">.st0{fill:#fff}</style><path class="st0" d="M256 349.9c-51.8 0-93.9-42.1-93.9-93.9 0-51.8 42.1-93.9 93.9-93.9 51.8 0 93.9 42.1 93.9 93.9 0 51.8-42.1 93.9-93.9 93.9zm0-167.8c-40.7 0-73.9 33.1-73.9 73.9 0 40.7 33.1 73.9 73.9 73.9s73.9-33.1 73.9-73.9c0-40.7-33.2-73.9-73.9-73.9z"/><path transform="rotate(-45.001 369.968 367.49)" class="st0" d="M360 329.2h20v76.6h-20z"/><path transform="rotate(-45.001 142.028 144.52)" class="st0" d="M132 106.2h20v76.6h-20z"/><path transform="rotate(-45.001 144.513 369.974)" class="st0" d="M106.2 360h76.6v20h-76.6z"/><path transform="rotate(-45.001 367.483 142.034)" class="st0" d="M329.2 132h76.6v20h-76.6z"/><path class="st0" d="M247.8 377.1h20v76.6h-20zm-3.6-318.8h20v76.6h-20zM58.3 247.8h76.6v20H58.3zm318.8-3.6h76.6v20h-76.6zm-133.9 25.2V264c0-4.1.8-7.6 2.5-10.4 1.7-2.8 4.7-5.6 9-8.3 3.4-2.1 5.9-4.1 7.4-5.8 1.5-1.7 2.2-3.7 2.2-5.9 0-1.8-.8-3.2-2.4-4.2-1.6-1-3.7-1.5-6.2-1.5-6.4 0-13.8 2.3-22.3 6.8l-8.8-17.2c10.5-6 21.4-9 32.8-9 9.4 0 16.7 2.1 22.1 6.2 5.3 4.1 8 9.7 8 16.9 0 5.1-1.2 9.5-3.6 13.2-2.4 3.7-6.2 7.2-11.4 10.6-4.4 2.9-7.2 5-8.3 6.3-1.1 1.3-1.7 2.9-1.7 4.7v3.2h-19.3zm-2.8 22.1c0-3.9 1.1-6.9 3.4-9 2.3-2.1 5.6-3.2 9.9-3.2 4.2 0 7.4 1.1 9.7 3.2 2.3 2.1 3.4 5.1 3.4 8.9 0 3.8-1.2 6.8-3.5 8.9s-5.5 3.2-9.6 3.2c-4.2 0-7.4-1-9.8-3.1-2.3-2-3.5-5-3.5-8.9z"/></svg>