<svg version="1.1" id="icon" xmlns="http://www.w3.org/2000/svg" x="0" y="0" viewBox="0 0 512 512" xml:space="preserve"><style type="text/css">.st0{fill:#18a1cb}.st1{fill:#3a7ba5}</style><path class="st0" d="M403.2 392.6H101.3c-48.4 0-87.8-39.4-87.8-87.8 0-48.3 39.3-87.7 87.6-87.8 7.9-26.4 23.8-50.1 45.4-67.4 24.1-19.4 54.5-30.1 85.6-30.1 39.2 0 76 16.6 102 45.7 8-2.5 16.2-3.7 24.7-3.7 31.4 0 60 17.7 74.1 45.4 38.9 12.7 65.7 49.3 65.7 90.6-.1 52.4-42.9 95.1-95.4 95.1zM101.3 236.9c-37.4 0-67.8 30.4-67.8 67.8s30.4 67.8 67.8 67.8h301.8c41.5 0 75.3-33.8 75.3-75.3 0-33.9-22.8-63.8-55.5-72.7l-4.6-1.3-1.9-4.3c-10.1-22.9-32.9-37.7-57.9-37.7-8.3 0-16.4 1.6-24 4.7l-6.9 2.8-4.7-5.8c-22.3-27.8-55.5-43.7-91-43.7-54.6 0-101.3 37.1-113.6 90.2l-2 8.5-8.7-.8c-2.1-.1-4.2-.2-6.3-.2z"/><path class="st1" d="M92.2 440.3c0 8.5 6.9 15.4 15.4 15.4s15.4-6.9 15.4-15.4-15.4-30.8-15.4-30.8-15.4 22.3-15.4 30.8zm98.9 0c0 8.5 6.9 15.4 15.4 15.4s15.4-6.9 15.4-15.4-15.4-30.8-15.4-30.8-15.4 22.3-15.4 30.8zm98.9 0c0 8.5 6.9 15.4 15.4 15.4s15.4-6.9 15.4-15.4-15.4-30.8-15.4-30.8-15.4 22.3-15.4 30.8zm99 0c0 8.5 6.9 15.4 15.4 15.4s15.4-6.9 15.4-15.4-15.4-30.8-15.4-30.8-15.4 22.3-15.4 30.8zm-247.3 39c0 8.5 6.9 15.4 15.4 15.4s15.4-6.9 15.4-15.4-15.4-30.8-15.4-30.8-15.4 22.3-15.4 30.8zm98.9 0c0 8.5 6.9 15.4 15.4 15.4s15.4-6.9 15.4-15.4-15.4-30.8-15.4-30.8-15.4 22.3-15.4 30.8zm98.9 0c0 8.5 6.9 15.4 15.4 15.4s15.4-6.9 15.4-15.4-15.4-30.8-15.4-30.8-15.4 22.3-15.4 30.8z"/><path class="st0" d="M112.9 115.2L94.8 79.6l-10.5 51.5-15.8-67.5-14.4 39.8-4.2-53.8-12.4-4.5 8.9 114.8L66 105.7l19.2 81.5 14.5-71.5 17.9 35.4 14.9-71-11.4-4.2z"/><path class="st1" d="M17.6 25l-4.1 11.2 24 8.9 12.4 4.5 71.2 26.3 11.4 4.2 23.8 8.8 4.1-11.3z"/></svg>