<svg version="1.1" xmlns="http://www.w3.org/2000/svg" x="0" y="0" viewBox="0 0 512 512" xml:space="preserve"><path d="M156.7 142.4h159.1v20H156.7zm-66.4 66.8h159.1v20H90.3zm194 0h159.1v20H284.3zM138.2 276h159.1v20H138.2zm146.1 66.8h159.1v20H284.3zm-217.3 0h159.1v20H67zm150.7 66.8h159.1v20H217.7z" fill="#18a1cb"/><path d="M43.2 84.8H29.8V68.9H18.1v42.8h11.7V94.3h13.4v17.4h11.6V68.9H43.2zm31.1 18.9h13.9l2.1 8H103l-14.2-43H73.4l-14 43h12.7l2.2-8zm5.9-23c.5-2.3.9-3.9 1-4.9.2 1.1.6 2.9 1.2 5.3.6 2.5 1.1 4.5 1.6 6.1l1.8 7h-9.1c1.8-6.7 3-11.2 3.5-13.5zm58 21.7h-19L137.7 76v-7.1h-32.4v9.3h18.1l-18.6 26.4v7.1h33.4zm31.5-.1h-13.8v-8.1h12.8v-9.3h-12.8v-6.7h13.8v-9.3h-25.4v42.8h25.4z" fill="#3a7ba5"/></svg>