<svg version="1.1" xmlns="http://www.w3.org/2000/svg" x="0" y="0" viewBox="0 0 512 512" xml:space="preserve"><path d="M156.7 142.4h159.1v20H156.7zm-66.4 66.8h159.1v20H90.3zm194 0h159.1v20H284.3zM138.2 276h159.1v20H138.2zm146.1 66.8h159.1v20H284.3zm-217.3 0h159.1v20H67zm150.7 66.8h159.1v20H217.7z" fill="#996847"/><path d="M28.9 78.3c.7-.5 1.8-.8 3.3-.8 2.9 0 6.4.9 10.4 2.8l3.5-8.9c-4.6-2.1-9.1-3.1-13.6-3.1-5 0-9 1.1-11.8 3.3-2.9 2.2-4.3 5.3-4.3 9.2 0 2.1.3 3.9 1 5.5.7 1.5 1.7 2.9 3.1 4.1 1.4 1.2 3.5 2.4 6.3 3.7 3.1 1.4 5 2.3 5.7 2.8.7.4 1.2.9 1.6 1.3s.5 1 .5 1.5c0 .9-.4 1.7-1.2 2.3-.8.6-2.1.9-3.8.9-2 0-4.2-.3-6.6-1-2.4-.6-4.7-1.5-6.9-2.7v10.3c2.1 1 4.1 1.7 6 2.1s4.3.6 7.2.6c3.4 0 6.4-.6 8.9-1.7s4.5-2.7 5.8-4.8c1.3-2.1 2-4.4 2-7.1 0-2.9-.7-5.3-2.2-7.2s-4-3.7-7.7-5.3c-3.8-1.8-6.2-3-7.1-3.6-.9-.7-1.3-1.4-1.3-2.3.2-.7.6-1.3 1.2-1.9zm33.8 2.6l8.8 30.8h11l8.6-30.8h.3c-.2 4.6-.4 7.6-.4 8.8v22.1h10.6V68.9H86.1l-8.8 30.4h-.2l-8.9-30.4H52.8v42.8H63V93.1c0-2.9-.2-7-.6-12.2h.3zm67.3 31.4c6.8 0 12-1.9 15.5-5.6 3.5-3.8 5.3-9.2 5.3-16.4 0-7.2-1.8-12.7-5.3-16.4-3.5-3.7-8.7-5.6-15.5-5.6-6.8 0-12 1.9-15.5 5.6-3.6 3.8-5.3 9.2-5.3 16.3 0 7.2 1.8 12.7 5.4 16.5 3.5 3.7 8.7 5.6 15.4 5.6zm.1-34.6c2.9 0 5 1 6.4 3.1 1.4 2 2.2 5.2 2.2 9.5s-.7 7.4-2.1 9.4c-1.4 2-3.6 3-6.5 3-5.8 0-8.6-4.1-8.6-12.4-.1-8.4 2.8-12.6 8.6-12.6zm40.1 19.7l3.4-2.1 8.5 16.4h13.1l-13.3-23.6 13.5-19.2h-12.7l-9 13.1c-1.8 2.5-3 4.3-3.5 5.5V68.9h-11.6v42.8h11.6V97.4zm55 4.9h-13.8v-8.1h12.8v-9.3h-12.8v-6.7h13.8v-9.3h-25.4v42.8h25.4z" fill="#3a7ba5"/></svg>