<svg version="1.1" id="icon" xmlns="http://www.w3.org/2000/svg" x="0" y="0" viewBox="0 0 512 512" xml:space="preserve"><style type="text/css">.st0{fill:#f8a724}</style><path class="st0" d="M314.3 291.6c-51.8 0-93.9-42.1-93.9-93.9 0-51.8 42.1-93.9 93.9-93.9 51.8 0 93.9 42.1 93.9 93.9-.1 51.8-42.2 93.9-93.9 93.9zm0-167.7c-40.7 0-73.9 33.1-73.9 73.9 0 40.7 33.1 73.9 73.9 73.9s73.9-33.1 73.9-73.9c-.1-40.8-33.2-73.9-73.9-73.9z"/><path transform="rotate(-45.001 428.238 309.22)" class="st0" d="M418.2 270.9h20v76.6h-20z"/><path transform="rotate(-45.001 200.299 86.25)" class="st0" d="M190.3 47.9h20v76.6h-20z"/><path transform="rotate(-45.001 425.754 83.765)" class="st0" d="M387.4 73.8H464v20h-76.6z"/><path class="st0" d="M306 318.8h20v76.6h-20zM302.5 0h20v76.6h-20zm-186 189.5h76.6v20h-76.6zm120.4 102.2l-14.1-14.1-33.3 33.3c7 1.5 13.6 4.7 19 9.2l28.4-28.4zM435.4 186H512v20h-76.6z"/><path d="M201.2 430.3H57.7c-25.9 0-47-21.1-47-47 0-24.6 19-44.8 43-46.8 4.3-12.1 12-22.9 22.1-31.1 12.4-10 28-15.5 44-15.5 19.1 0 37 7.6 50.2 21.1 3.3-.8 6.6-1.1 10-1.1 16.2 0 31 8.7 38.9 22.5 19.5 7.3 32.8 26.2 32.8 47.4 0 27.8-22.6 50.5-50.5 50.5zm-143.5-74c-14.9 0-27 12.1-27 27s12.1 27 27 27h143.5c16.9 0 30.6-13.7 30.6-30.6 0-13.7-9.3-25.9-22.5-29.5l-4.6-1.3-1.9-4.3c-4-9-12.9-14.8-22.7-14.8-3.3 0-6.4.6-9.4 1.9l-6.9 2.8-4.7-5.8c-9.6-12-23.9-18.8-39.2-18.8-23.5 0-43.6 16-48.9 38.8l-2 8.5-8.7-.8c-1 0-1.8-.1-2.6-.1z" fill="#18a1cb"/></svg>