<svg version="1.1" xmlns="http://www.w3.org/2000/svg" x="0" y="0" viewBox="0 0 512 512" xml:space="preserve"><path d="M256 349.9c-18.6 0-36.5-5.4-52-15.7l-12.5-8.3 12.5-8.3c20.7-13.8 33-36.8 33-61.5 0-24.8-12.3-47.8-33-61.5l-12.5-8.3L204 178c15.4-10.3 33.4-15.7 52-15.7 51.8 0 93.9 42.1 93.9 93.9 0 51.6-42.1 93.7-93.9 93.7zm-28.4-25.7c8.9 3.7 18.5 5.6 28.4 5.6 40.7 0 73.9-33.1 73.9-73.9 0-40.7-33.1-73.9-73.9-73.9-9.8 0-19.4 1.9-28.4 5.6 18.6 17.6 29.4 42.1 29.4 68.2 0 26.3-10.7 50.8-29.4 68.4z" fill="#f8a724"/></svg>