<svg version="1.1" id="icon" xmlns="http://www.w3.org/2000/svg" x="0" y="0" viewBox="0 0 512 512" xml:space="preserve"><style type="text/css">.st0{fill:#18a1cb}</style><path class="st0" d="M351.9 261c4.2-5.9 6.7-13 6.7-20.7 0-19.7-16-35.7-35.7-35.7-9.8 0-18.8 4-25.2 10.5l14.3 14.3c2.8-2.8 6.7-4.6 11-4.6 8.6 0 15.5 7 15.5 15.5 0 8.6-7 15.5-15.5 15.5H137.1V276h194.2c13 0 23.5 10.5 23.5 23.5S344.3 323 331.3 323c-6.5 0-12.4-2.6-16.6-6.9l-14.3 14.3c7.9 7.9 18.8 12.8 30.9 12.8 24.1 0 43.7-19.6 43.7-43.7-.1-16.6-9.4-31.1-23.1-38.5z"/><path class="st0" d="M272.3 204.5c0-19.7-16-35.7-35.7-35.7-9.8 0-18.8 4-25.2 10.5l14.3 14.3c2.8-2.8 6.7-4.6 11-4.6 8.6 0 15.5 7 15.5 15.5 0 8.6-7 15.5-15.5 15.5h-99.5v20.2h99.5c19.6.1 35.6-16 35.6-35.7zm0 122.9c0 19.7-16 35.7-35.7 35.7-9.8 0-18.8-4-25.2-10.5l14.3-14.3c2.8 2.8 6.7 4.6 11 4.6 8.6 0 15.5-7 15.5-15.5s-7-15.5-15.5-15.5h-99.5v-20.2h99.5c19.6 0 35.6 16 35.6 35.7z"/></svg>