<svg version="1.1" xmlns="http://www.w3.org/2000/svg" x="0" y="0" viewBox="0 0 512 512" xml:space="preserve"><path d="M124.6 259.7l-11 6.4v-12.7h-12v12.7l-11-6.4-6 10.4 11 6.4-11 6.4 6 10.4 11-6.4v12.7h12v-12.7l11 6.4 6-10.4-11-6.4 11-6.4zm99 0l-11.1 6.4v-12.7h-12v12.7l-11-6.4-6 10.4 11 6.4-11 6.4 6 10.4 11-6.4v12.7h12v-12.7l11.1 6.4 6-10.4-11.1-6.4 11.1-6.4zm98.9 0l-11 6.4v-12.7h-12v12.7l-11.1-6.4-6 10.4 11.1 6.4-11.1 6.4 6 10.4 11.1-6.4v12.7h12v-12.7l11 6.4 6-10.4-11-6.4 11-6.4zm98.9 0l-11 6.4v-12.7h-12v12.7l-11-6.4-6 10.4 11 6.4-11 6.4 6 10.4 11-6.4v12.7h12v-12.7l11 6.4 6-10.4-11-6.4 11-6.4zm-49.5 39l-11 6.4v-12.7h-12v12.7l-11-6.4-6 10.4 11 6.4-11 6.4 6 10.4 11-6.4v12.7h12v-12.7l11 6.4 6-10.4-11-6.4 11-6.4zm-98.9 0l-11 6.4v-12.7h-12v12.7l-11-6.4-6 10.4 11 6.4-11 6.4 6 10.4 11-6.4v12.7h12v-12.7l11 6.4 6-10.4-11-6.4 11-6.4zm-98.9 0l-11 6.4v-12.7h-12v12.7l-11-6.4-6 10.4 11 6.4-11 6.4 6 10.4 11-6.4v12.7h12v-12.7l11 6.4 6-10.4-11-6.4 11-6.4zm-49.5-119l-11 6.4v-12.7h-12v12.7l-11-6.4-6 10.4 11 6.4-11 6.4 6 10.4 11-6.4v12.7h12v-12.7l11 6.4 6-10.4-11-6.4 11-6.4zm99 0l-11.1 6.4v-12.7h-12v12.7l-11-6.4-6 10.4 11 6.4-11 6.4 6 10.4 11-6.4v12.7h12v-12.7l11.1 6.4 6-10.4-11.1-6.4 11.1-6.4zm98.9 0l-11 6.4v-12.7h-12v12.7l-11.1-6.4-6 10.4 11.1 6.4-11.1 6.4 6 10.4 11.1-6.4v12.7h12v-12.7l11 6.4 6-10.4-11-6.4 11-6.4zm104.9 10.4l-6-10.4-11 6.4v-12.7h-12v12.7l-11-6.4-6 10.4 11 6.4-11 6.4 6 10.4 11-6.4v12.7h12v-12.7l11 6.4 6-10.4-11-6.4zm-55.5 28.6l-11 6.4v-12.7h-12v12.7l-11-6.4-6 10.4 11 6.4-11 6.4 6 10.4 11-6.4v12.7h12v-12.7l11 6.4 6-10.4-11-6.4 11-6.4zm-98.9 0l-11 6.4v-12.7h-12v12.7l-11-6.4-6 10.4 11 6.4-11 6.4 6 10.4 11-6.4v12.7h12v-12.7l11 6.4 6-10.4-11-6.4 11-6.4zm-98.9 0l-11 6.4v-12.7h-12v12.7l-11-6.4-6 10.4 11 6.4-11 6.4 6 10.4 11-6.4v12.7h12v-12.7l11 6.4 6-10.4-11-6.4 11-6.4z" fill="#fff"/></svg>