<svg version="1.1" id="icon" xmlns="http://www.w3.org/2000/svg" x="0" y="0" viewBox="0 0 512 512" xml:space="preserve"><style type="text/css">.st0{fill:#fff}</style><path class="st0" d="M256 349.9c-51.8 0-93.9-42.1-93.9-93.9 0-51.8 42.1-93.9 93.9-93.9 51.8 0 93.9 42.1 93.9 93.9 0 51.8-42.1 93.9-93.9 93.9z"/><path transform="rotate(-45.001 369.968 367.49)" class="st0" d="M360 329.2h20v76.6h-20z"/><path transform="rotate(-45.001 142.028 144.52)" class="st0" d="M132 106.2h20v76.6h-20z"/><path transform="rotate(-45.001 144.513 369.974)" class="st0" d="M106.2 360h76.6v20h-76.6z"/><path transform="rotate(-45.001 367.483 142.034)" class="st0" d="M329.2 132h76.6v20h-76.6z"/><path class="st0" d="M247.8 377.1h20v76.6h-20zm-3.6-318.8h20v76.6h-20zM58.3 247.8h76.6v20H58.3zm318.8-3.6h76.6v20h-76.6z"/></svg>