<svg version="1.1" xmlns="http://www.w3.org/2000/svg" x="0" y="0" viewBox="0 0 512 512" xml:space="preserve"><path d="M156.7 142.4h159.1v20H156.7zm-66.4 66.8h159.1v20H90.3zm194 0h159.1v20H284.3zM138.2 276h159.1v20H138.2zm146.1 66.8h159.1v20H284.3zm-217.3 0h159.1v20H67zm150.7 66.8h159.1v20H217.7zM33 68.9H18.1v42.8H32c7.1 0 12.7-1.9 16.6-5.8 3.9-3.9 5.9-9.4 5.9-16.5 0-6.6-1.9-11.7-5.6-15.2-3.8-3.5-9.1-5.3-15.9-5.3zm7 30.3c-1.6 2-4.2 3.1-7.7 3.1h-2.6v-24h3.4c3.2 0 5.5.9 7.1 2.8 1.6 1.9 2.3 4.8 2.3 8.7 0 4.2-.8 7.3-2.5 9.4zm53.8 8.5c3.2-3.1 4.8-7.4 4.8-13V68.9H87V94c0 3.1-.5 5.3-1.6 6.7-1.1 1.4-2.8 2-5.1 2-2.2 0-3.9-.7-5-2.1-1.1-1.4-1.7-3.6-1.7-6.6V68.9H61.9v26c0 5.6 1.6 9.9 4.7 12.9s7.6 4.5 13.5 4.5c6 0 10.5-1.5 13.7-4.6zm25 4.6c3.4 0 6.4-.6 8.9-1.7s4.5-2.7 5.8-4.8c1.3-2.1 2-4.4 2-7.1 0-2.9-.7-5.3-2.2-7.2s-4-3.7-7.7-5.3c-3.8-1.8-6.2-3-7.1-3.6-.9-.7-1.3-1.4-1.3-2.3 0-.8.3-1.4 1-2 .7-.5 1.8-.8 3.3-.8 2.9 0 6.4.9 10.4 2.8l3.5-8.9c-4.6-2.1-9.1-3.1-13.6-3.1-5 0-9 1.1-11.8 3.3-2.9 2.2-4.3 5.3-4.3 9.2 0 2.1.3 3.9 1 5.5.7 1.5 1.7 2.9 3.1 4.1 1.4 1.2 3.5 2.4 6.3 3.7 3.1 1.4 5 2.3 5.7 2.8.7.4 1.2.9 1.6 1.3s.5 1 .5 1.5c0 .9-.4 1.7-1.2 2.3-.8.6-2.1.9-3.8.9-2 0-4.2-.3-6.6-1-2.4-.6-4.7-1.5-6.9-2.7v10.3c2.1 1 4.1 1.7 6 2.1s4.5.7 7.4.7zm30.7-.6h11.6V78.4h10.4v-9.5h-32.4v9.5h10.4z" fill="#fff"/></svg>