<svg version="1.1" xmlns="http://www.w3.org/2000/svg" x="0" y="0" viewBox="0 0 512 512" xml:space="preserve"><path d="M367 262.4c-18.6 0-36.5-5.4-52-15.7l-12.5-8.3L315 230c20.7-13.8 33-36.8 33-61.5 0-24.8-12.3-47.8-33-61.5l-12.5-8.3 12.5-8.3c15.4-10.3 33.4-15.7 52-15.7 51.8 0 93.9 42.1 93.9 93.9-.1 51.6-42.2 93.8-93.9 93.8zm-28.4-25.7c8.9 3.7 18.5 5.6 28.4 5.6 40.7 0 73.9-33.1 73.9-73.9 0-40.7-33.1-73.9-73.9-73.9-9.8 0-19.4 1.9-28.4 5.6 18.6 17.6 29.4 42.1 29.4 68.2 0 26.3-10.7 50.8-29.4 68.4z" fill="#f8a724"/><path d="M201.2 430.3H57.7c-25.9 0-47-21.1-47-47 0-24.6 19-44.8 43-46.8 4.3-12.1 12-22.9 22.1-31.1 12.4-10 28-15.5 44-15.5 19.1 0 37 7.6 50.2 21.1 3.3-.8 6.6-1.1 10-1.1 16.2 0 31 8.7 38.9 22.5 19.5 7.3 32.8 26.2 32.8 47.4 0 27.8-22.6 50.5-50.5 50.5zm-143.5-74c-14.9 0-27 12.1-27 27s12.1 27 27 27h143.5c16.9 0 30.6-13.7 30.6-30.6 0-13.7-9.3-25.9-22.5-29.5l-4.6-1.3-1.9-4.3c-4-9-12.9-14.8-22.7-14.8-3.3 0-6.4.6-9.4 1.9l-6.9 2.8-4.7-5.8c-9.6-12-23.9-18.8-39.2-18.8-23.5 0-43.6 16-48.9 38.8l-2 8.5-8.7-.8c-1 0-1.8-.1-2.6-.1z" fill="#fff"/></svg>