<?xml version="1.0" encoding="utf-8"?>
<!-- Generator: Adobe Illustrator 21.0.0, SVG Export Plug-In . SVG Version: 6.00 Build 0)  -->
<svg version="1.1" id="Layer_1" xmlns="http://www.w3.org/2000/svg" xmlns:xlink="http://www.w3.org/1999/xlink" x="0px" y="0px"
	 viewBox="0 0 512 512" style="enable-background:new 0 0 512 512;" xml:space="preserve">
<style type="text/css">
	.st0{fill:#1D1D1B;}
</style>
<path class="st0" d="M512.1,363.6c-0.1-0.9-0.2-1.7-0.3-2.5c-1.4-23.1-9.8-44.3-23.1-61.5c4.5-5,8.5-10.4,11.8-16.2
	c0.7-1.2,1.3-2.3,1.9-3.5c0,0,0-0.1,0.1-0.1c0.6-1.2,1.2-2.3,1.7-3.5c0-0.1,0.1-0.2,0.1-0.3c0.5-1.1,1-2.3,1.5-3.4
	c0.1-0.1,0.1-0.3,0.2-0.4c0.4-1.1,0.9-2.2,1.3-3.4c0.1-0.2,0.1-0.4,0.2-0.7c0.4-1.1,0.7-2.1,1-3.2c0.1-0.3,0.2-0.6,0.2-0.9
	c0.3-1,0.6-2,0.8-3.1c0.1-0.4,0.2-0.8,0.3-1.2c0.2-0.9,0.4-1.9,0.6-2.9c0.1-0.5,0.2-1,0.3-1.5c0.2-0.9,0.3-1.7,0.4-2.6
	c0.1-0.6,0.2-1.3,0.2-1.9c0.1-0.7,0.2-1.5,0.3-2.2c0.1-0.8,0.1-1.7,0.2-2.5c0-0.6,0.1-1.2,0.1-1.7c0.1-1.4,0.1-2.9,0.1-4.3
	c0-19.8-6.5-38.2-17.5-53c3.4-6.2,6.3-12.7,8.7-19.6c2.1-5.8,0.6-12.3-3.8-16.6c-4.4-4.4-10.8-5.9-16.6-3.8
	c-25,8.9-51.6,7.2-74.2-3.9c-9.2-9.6-19.8-17.7-31.5-23.8c-21.6-25.9-28.1-61-16.5-93.5c2.1-5.8,0.6-12.3-3.8-16.6
	c-4.3-4.4-10.8-5.8-16.6-3.8c-18.5,6.6-34.6,16.6-47.8,29.8C268.2,59.4,255.8,91,255,122.7c-18.7-11.2-40.3-17.4-63-17.4
	c-37.7,0-72.6,17.1-95.7,46c-2.4-0.2-4.8-0.3-7.1-0.3C40,150.9,0,190.8,0,240c0,23,9,43.8,23.4,59.6c-1.7,2.2-3.3,4.5-4.9,6.8
	c0,0,0,0,0,0.1c-1.5,2.3-3,4.7-4.3,7.1c0,0,0,0,0,0.1c-3.4,6.1-6.3,12.6-8.5,19.4c0,0,0,0,0,0.1c-0.9,2.7-1.7,5.4-2.3,8.2v0.1
	c-0.7,2.8-1.2,5.6-1.7,8.4v0.1c-0.7,4.3-1.2,8.7-1.4,13.1c0,0.9-0.1,1.7-0.1,2.6c0,0.8,0,1.6,0,2.4c0,61.8,50.3,112,112,112
	c13.7,0,27.1-2.5,39.7-7.3c29,25.3,65.7,39.3,104.3,39.3s75.3-14.1,104.3-39.3c12.6,4.8,26,7.3,39.7,7.3c61.8,0,112-50.2,112-112
	C512.2,366.6,512.2,365.1,512.1,363.6z M315.1,57.9c2.6-2.6,5.3-5,8.2-7.2c-1.2,18.9,1.9,37.8,8.9,55.2c-4.4-0.5-8.8-0.7-13.2-0.7
	c-10.4,0-20.6,1.3-30.4,3.8C291.8,90.2,300.7,72.3,315.1,57.9z M240.1,184.2c0.2-0.3,0.3-0.6,0.5-0.9c0.4-0.7,0.8-1.4,1.3-2.1
	c0.2-0.3,0.4-0.6,0.6-0.9c0.4-0.7,0.9-1.4,1.4-2.1c0.2-0.3,0.3-0.5,0.5-0.8c0.5-0.8,1.1-1.6,1.6-2.3c0.1-0.1,0.2-0.3,0.3-0.4
	c2.8-3.9,6-7.5,9.4-10.9c7.7-7.7,16.7-14,26.6-18.5c0.2-0.1,0.4-0.2,0.6-0.3c0.6-0.3,1.3-0.6,1.9-0.8c0.3-0.1,0.7-0.3,1-0.4
	c0.6-0.2,1.1-0.4,1.7-0.7c0.3-0.1,0.6-0.2,1-0.4c0.8-0.3,1.7-0.6,2.5-0.9c0.2-0.1,0.4-0.1,0.6-0.2c0.7-0.2,1.4-0.5,2.2-0.7
	c0.3-0.1,0.7-0.2,1-0.3c0.6-0.2,1.2-0.3,1.9-0.5c0.3-0.1,0.6-0.2,0.9-0.2c0.9-0.2,1.8-0.4,2.7-0.6c0.1,0,0.2,0,0.4-0.1
	c0.8-0.2,1.6-0.3,2.5-0.5c0.3-0.1,0.6-0.1,0.9-0.2c0.7-0.1,1.4-0.2,2-0.3c0.3,0,0.6-0.1,0.9-0.1c1-0.1,1.9-0.3,2.9-0.4
	c0.1,0,0.1,0,0.2,0c0.7-0.1,1.3-0.1,2-0.2c2.3-0.2,4.5-0.3,6.9-0.3c14.7,0,28.6,3.5,40.8,9.7c-0.3-0.3-0.6-0.6-0.9-0.9
	c18.2,8.7,33,23.3,42.2,41.2c6.7-2.8,14.1-4.3,21.7-4.3c31.6,0,57.2,25.6,57.2,57.1c0,0.9,0,1.8-0.1,2.7c0,0.4-0.1,0.7-0.1,1.1
	c0,0.5-0.1,1-0.1,1.6c0,0.5-0.1,0.9-0.2,1.4c0,0.4-0.1,0.8-0.1,1.2c-0.1,0.5-0.2,1.1-0.3,1.6c-0.1,0.3-0.1,0.7-0.2,1
	c-0.1,0.6-0.2,1.2-0.4,1.7c-0.1,0.3-0.1,0.5-0.2,0.8c-0.2,0.6-0.3,1.3-0.5,1.9c-0.1,0.2-0.1,0.4-0.2,0.6c-0.2,0.7-0.4,1.3-0.6,2
	c0,0.1-0.1,0.3-0.1,0.4c-0.2,0.7-0.5,1.4-0.8,2.1c0,0.1-0.1,0.2-0.1,0.3c-0.3,0.7-0.6,1.4-0.9,2.2c0,0.1,0,0.1-0.1,0.2
	c-0.3,0.7-0.7,1.5-1,2.2v0.1c-0.4,0.7-0.8,1.5-1.2,2.2c-2,3.7-4.4,7.1-7.2,10.2c-0.1,0.1-0.1,0.2-0.2,0.2c0.1-0.1,0.1-0.2,0.2-0.2
	c-17.3-12.6-38.2-20.3-60.9-21.3c-1.6-0.1-3.2-0.1-4.9-0.1c-5.3,0-10.6,0.4-15.8,1.1c-0.6-0.8-1.1-1.5-1.7-2.2
	c-9.7-12.7-21-23.8-33.7-32.9c-7-5-14.3-9.5-22-13.3h-0.1c-1.5-0.7-3-1.5-4.5-2.1c-0.1,0-0.2-0.1-0.3-0.1c-1.5-0.7-2.9-1.3-4.4-1.9
	c-0.1,0-0.2-0.1-0.3-0.1c-1.5-0.6-3.1-1.3-4.7-1.9c-11.2-4.3-23-7.3-35.2-9c0,0,0,0-0.1,0c-7-0.9-14.2-1.5-21.4-1.5
	c-6.9,0-13.7,0.5-20.5,1.3c-0.5,0.1-1,0.1-1.5,0.2c-1.1,0.2-2.2,0.3-3.2,0.5c-7.2,1.1-14.3,2.8-21.2,4.9c-0.1,0-0.2,0.1-0.3,0.1
	c-16.6,5.1-32.2,12.9-46.1,22.9c2.8-8.5,7.6-16.1,13.8-22.3c0.5-0.5,1-1,1.6-1.5c0.5-0.5,1-1,1.6-1.4c0,0,0,0,0.1-0.1
	c0.5-0.5,1.1-0.9,1.6-1.3l0.1-0.1c0.5-0.4,1.1-0.8,1.6-1.3c0.1,0,0.1-0.1,0.2-0.1c0.5-0.4,1.1-0.8,1.6-1.2c0.1-0.1,0.2-0.1,0.2-0.1
	c0.5-0.4,1.1-0.7,1.6-1.1c0.1-0.1,0.2-0.1,0.3-0.2c0.5-0.3,1.1-0.6,1.6-1c0.1-0.1,0.2-0.1,0.4-0.2c0.5-0.3,1-0.6,1.6-0.9
	c0.1-0.1,0.3-0.1,0.4-0.2c0.5-0.3,1-0.5,1.5-0.8c0.2-0.1,0.3-0.2,0.5-0.2c0.5-0.2,1-0.5,1.5-0.7c0.2-0.1,0.4-0.2,0.6-0.2
	c0.5-0.2,1-0.4,1.5-0.6c0.2-0.1,0.5-0.2,0.7-0.3c0.5-0.2,0.9-0.3,1.4-0.5c0.3-0.1,0.5-0.2,0.8-0.2c0.5-0.1,0.9-0.3,1.4-0.4
	c0.3-0.1,0.6-0.1,0.8-0.2c0.4-0.1,0.9-0.3,1.3-0.4c0.3-0.1,0.6-0.1,0.9-0.2c0.4-0.1,0.9-0.2,1.3-0.3c0.3-0.1,0.7-0.1,1-0.2
	c0.4-0.1,0.8-0.2,1.2-0.2c0.4-0.1,0.8-0.1,1.1-0.2c0.4-0.1,0.8-0.1,1.1-0.2c0.4-0.1,0.8-0.1,1.2-0.1c0.4,0,0.7-0.1,1.1-0.1
	c0.5,0,1-0.1,1.4-0.1c0.3,0,0.6,0,0.9-0.1c0.8,0,1.6,0,2.4,0c7.8,0,15.1,1.6,21.8,4.3C239,186.2,239.6,185.2,240.1,184.2z
	 M453.5,269.9c-0.7-0.3-1.3-0.7-2-1.1C452.2,269.2,452.8,269.5,453.5,269.9z M446,266.1c-0.7-0.3-1.4-0.6-2-0.9
	C444.7,265.5,445.3,265.8,446,266.1z M442,264.4c-0.6-0.2-1.2-0.5-1.9-0.8C440.7,263.9,441.4,264.1,442,264.4z M199.7,202.5
	c-0.2,0.1-0.5,0.2-0.7,0.3C199.2,202.6,199.4,202.5,199.7,202.5z M194.7,204.5c-0.2,0.1-0.3,0.1-0.5,0.2
	C194.3,204.6,194.5,204.5,194.7,204.5z M189.9,206.6c-0.1,0-0.1,0.1-0.2,0.1C189.8,206.6,189.9,206.6,189.9,206.6z M176.2,213.8
	l-0.1,0.1C176.1,213.8,176.1,213.8,176.2,213.8z M172.1,216.3c-0.2,0.2-0.5,0.3-0.7,0.5C171.6,216.6,171.8,216.4,172.1,216.3z
	 M167.6,219.2c-0.2,0.2-0.5,0.3-0.7,0.5C167.1,219.5,167.3,219.3,167.6,219.2z M232.5,142c-0.1,0.1-0.2,0.2-0.2,0.2
	C232.3,142.1,232.4,142,232.5,142z M89.2,182.9c7.7,0,15,1.6,21.7,4.3c15.1-29.6,45.6-50,81.1-50c13.4,0,26,2.9,37.4,8.1
	c-0.8,0.9-1.7,1.9-2.5,2.8l-0.1,0.1c-0.8,1-1.7,2-2.5,3c-2.4-0.2-4.8-0.3-7.2-0.3c-49.1,0-89.1,40-89.1,89.1c0,0.6,0,1.3,0,1.9
	c0,0.3,0,0.5,0,0.8c0,0.4,0,0.7,0.1,1.1c0,0.3,0,0.7,0.1,1c0,0.3,0,0.6,0.1,0.9c0,0.4,0.1,0.8,0.1,1.1c0,0.2,0,0.5,0.1,0.7
	c0,0.4,0.1,0.8,0.1,1.3c0,0.2,0,0.4,0.1,0.6c0.1,0.5,0.1,0.9,0.2,1.4c0,0.1,0,0.3,0.1,0.4c0.1,0.5,0.2,1.1,0.2,1.6
	c0,0.1,0,0.2,0,0.2c0.1,0.6,0.2,1.2,0.3,1.8c-0.6,0.7-1.1,1.5-1.7,2.2c-5.2-0.8-10.5-1.1-15.8-1.1c-1.6,0-3.2,0-4.8,0.1
	c-2.8,0.1-5.6,0.3-8.4,0.7c-2.8,0.3-5.5,0.8-8.2,1.3s-5.4,1.2-8,1.9c-2.6,0.7-5.2,1.5-7.7,2.4c0,0,0,0-0.1,0c-2.5,0.9-5,1.9-7.5,3
	c-2.5,1.1-4.9,2.2-7.2,3.5c-2.4,1.3-4.7,2.6-6.9,4c-2.3,1.4-4.5,2.9-6.6,4.5C37.5,267.3,32,254.4,32,240
	C32,208.4,57.6,182.9,89.2,182.9z M125.5,289.2c-0.8-0.1-1.5-0.3-2.3-0.4C124,288.9,124.8,289.1,125.5,289.2z M117.4,288.2
	c-0.5,0-1.1-0.1-1.6-0.1C116.4,288.1,116.9,288.2,117.4,288.2z M75.5,296.8c-1,0.5-2,1.1-3,1.6C73.4,297.9,74.4,297.4,75.5,296.8z
	 M46.8,321.7c-0.6,0.9-1.2,1.8-1.8,2.7C45.6,323.4,46.2,322.6,46.8,321.7z M44.9,324.5c-4.4,6.7-7.7,14.1-9.9,22
	C37.1,338.6,40.5,331.2,44.9,324.5z M400,448c-17.1,0-32.9-5.5-45.9-14.7C330.6,461.6,295.6,480,256,480
	c-39.6,0-74.6-18.4-98.1-46.7c-13,9.2-28.8,14.7-45.9,14.7c-44.2,0-80-35.8-80-80c0-2.4,0.1-4.8,0.3-7.1c0.3-2.9,0.7-5.8,1.3-8.6
	c0.1-0.7,0.2-1.3,0.4-2c0,0.2-0.1,0.4-0.1,0.6c2.7-11.7,8-22.4,15.1-31.7c7.6-9.8,17.3-17.8,28.6-23.2c8.8-4.2,18.3-7,28.5-7.8
	c1.9-0.1,3.9-0.2,5.8-0.2l12.6,1.2c5.3,0.9,10.4,2.1,15.3,3.8c0.8,0.3,1.7,0.6,2.5,1c0.1-0.1,0.1-0.2,0.2-0.3
	c0.5-0.9,1.1-1.8,1.6-2.7c5.6-10.3,12.6-19.7,20.7-28c1-1.1,2.1-2.1,3.2-3.2c0.2-0.2,0.4-0.4,0.7-0.6c1.1-1,2.1-2,3.2-3
	c0.2-0.2,0.4-0.3,0.6-0.5c1-0.9,2.1-1.8,3.1-2.7c0.1-0.1,0.3-0.2,0.4-0.4c1.1-0.9,2.3-1.9,3.5-2.8c0.2-0.2,0.5-0.3,0.7-0.5
	c1.2-0.9,2.4-1.8,3.7-2.7c0,0,0.1,0,0.1-0.1c1.2-0.9,2.5-1.7,3.8-2.5c0.2-0.1,0.4-0.2,0.6-0.4c1.3-0.8,2.6-1.6,3.9-2.4
	c0.2-0.1,0.3-0.2,0.5-0.3c1.4-0.8,2.7-1.6,4.1-2.3c1.4-0.7,2.8-1.5,4.2-2.2c0.2-0.1,0.4-0.2,0.5-0.3c2.9-1.4,5.9-2.7,8.9-3.9
	c0.1,0,0.2-0.1,0.3-0.1c1.5-0.6,3-1.1,4.6-1.7c0.1,0,0.2-0.1,0.3-0.1c3.1-1.1,6.3-2,9.5-2.8c0.1,0,0.2-0.1,0.4-0.1
	c1.3-0.3,2.7-0.6,4-1c-0.2,0-0.3,0.1-0.5,0.1c0.4-0.1,0.8-0.2,1.2-0.3c0,0-0.1,0-0.1,0.1c0.2,0,0.4-0.1,0.5-0.1c-0.1,0-0.2,0-0.2,0
	c0.1,0,0.2,0,0.2-0.1c0,0,0,0,0,0.1c1.6-0.3,3.3-0.6,4.9-0.9c-1.1,0.2-2.2,0.4-3.4,0.6c7.7-1.5,15.6-2.3,23.7-2.3
	c16.3,0,31.8,3.1,46,8.7c-1.9-0.7-3.7-1.4-5.6-2c17.7,6,33.6,15.9,47,28.6c-0.1-0.1-0.2-0.2-0.4-0.3c0.7,0.7,1.3,1.3,2,1.9
	c0.7,0.7,1.4,1.4,2.1,2.1c2.2,2.3,4.3,4.7,6.4,7.1c0.8,0.9,1.5,1.8,2.2,2.7c0.4,0.5,0.8,1,1.2,1.5c-0.2-0.2-0.3-0.4-0.5-0.6
	c1.3,1.7,2.6,3.5,3.9,5.3c0.2,0.3,0.5,0.7,0.7,1c1.4,2,2.7,4.1,4,6.2c0.7,1.2,1.5,2.5,2.2,3.7c0.7,1.3,1.5,2.7,2.2,4
	c-0.4-0.7-0.7-1.4-1.1-2.1c0.3,0.6,0.7,1.1,1,1.7c0.1,0.1,0.1,0.2,0.2,0.3c0.8-0.3,1.7-0.7,2.5-1c2.4-0.9,4.8-1.6,7.3-2.2
	c0.1,0,0.3-0.1,0.4-0.1c1.2-0.3,2.3-0.5,3.5-0.8c0.2,0,0.3-0.1,0.5-0.1c1.2-0.2,2.4-0.5,3.6-0.7L400,288h0.1c0.5,0,1.1,0,1.7,0
	c0.5,0,1.1,0.1,1.7,0.1c0.8,0,1.6,0.1,2.4,0.1c3.8,0.3,7.5,0.9,11.1,1.7h0.1c1.2,0.3,2.3,0.6,3.5,0.9h0.1c2.3,0.6,4.5,1.4,6.7,2.2
	c0.2,0.1,0.3,0.1,0.5,0.2c1,0.4,2,0.8,3,1.2c0.2,0.1,0.3,0.1,0.5,0.2c1,0.4,2,0.9,3,1.4c11.3,5.4,21,13.4,28.6,23.2
	c0.6,0.8,1.2,1.6,1.8,2.4c0.2,0.3,0.4,0.6,0.6,0.8c0.4,0.5,0.8,1.1,1.1,1.7c0.2,0.3,0.4,0.7,0.7,1c0.3,0.5,0.7,1,1,1.5
	c0.2,0.4,0.4,0.7,0.7,1.1c0.3,0.5,0.6,1,0.9,1.5c0.2,0.4,0.4,0.8,0.6,1.2c0.3,0.5,0.5,1,0.8,1.5c0.2,0.4,0.4,0.8,0.6,1.2
	c0.3,0.5,0.5,1.1,0.8,1.6c0.2,0.4,0.4,0.8,0.5,1.1c0.4,0.8,0.7,1.7,1.1,2.5c0.2,0.5,0.4,1,0.6,1.4c0.2,0.5,0.4,1,0.6,1.6
	c0.2,0.5,0.3,1,0.5,1.5s0.3,0.9,0.5,1.4s0.3,1,0.5,1.6c0.1,0.5,0.3,0.9,0.4,1.4c0.1,0.5,0.3,1.1,0.4,1.6c0.1,0.4,0.2,0.9,0.3,1.3
	c0.1,0.6,0.3,1.1,0.4,1.7c0.1,0.4,0.2,0.9,0.3,1.3c0.1,0.6,0.2,1.2,0.3,1.8c0.1,0.4,0.1,0.8,0.2,1.2c0.2,1.6,0.5,3.1,0.6,4.7
	c0.2,2.4,0.3,4.7,0.3,7.2C480,412.2,444.2,448,400,448z M504.4,328.3c0.3,0.6,0.6,1.3,0.8,2.1C504.9,329.7,504.7,329,504.4,328.3z
	 M511.1,354.1c0.1,0.7,0.2,1.5,0.2,2.2C511.2,355.6,511.2,354.8,511.1,354.1z M511.6,358.6c0,0.5,0.1,1,0.1,1.6
	C511.7,359.7,511.6,359.2,511.6,358.6z"/>
</svg>
