<?xml version="1.0" encoding="utf-8"?>
<!-- Generator: Adobe Illustrator 21.0.0, SVG Export Plug-In . SVG Version: 6.00 Build 0)  -->
<svg version="1.1" id="Layer_1" xmlns="http://www.w3.org/2000/svg" xmlns:xlink="http://www.w3.org/1999/xlink" x="0px" y="0px"
	 viewBox="0 0 512 512" style="enable-background:new 0 0 512 512;" xml:space="preserve">
<style type="text/css">
	.st0{fill:#1D1D1B;}
</style>
<path class="st0" d="M511,240c0-19.5-6.3-37.5-16.9-52.1c3.6-6.4,6.6-13.2,9.1-20.4c2.1-5.8,0.6-12.3-3.8-16.6
	c-4.4-4.4-10.8-5.9-16.6-3.8c-25.7,9.1-52.9,7.1-75.9-4.8c-0.1-0.1-0.1-0.1-0.2-0.2c0,0,0.1,0,0.1,0.1c-8.1-8.4-17.3-15.5-27.4-21.2
	c0.1,0.1,0.1,0.1,0.2,0.2c-0.6-0.3-1.1-0.6-1.7-0.9c-22.2-26-28.9-61.4-17.2-94.3c2.1-5.8,0.6-12.3-3.8-16.6
	c-4.3-4.4-10.8-5.8-16.6-3.8c-18.5,6.6-34.6,16.6-47.8,29.8c-24.3,24.2-36.7,56-37.4,87.8c-12,7.4-22.8,16.8-31.8,28.1
	c-2.4-0.2-4.8-0.3-7.2-0.3c-49.1,0-89.1,40-89.1,89.1c0,5.1,0.7,10.1,1.5,15c-0.5,0.7-1.2,1.4-1.7,2.1c-5.2-0.8-10.5-1.1-15.8-1.1
	C49.3,256-1,306.3-1,368c0,61.8,50.3,112,112,112c13.7,0,27.1-2.5,39.7-7.3C179.7,498,216.5,512,255,512s75.3-14.1,104.3-39.3
	c12.6,4.8,26,7.3,39.7,7.3c61.8,0,112-50.2,112-112c0-25.7-9-49.1-23.7-68C501.9,284.1,511,263.2,511,240z M315.1,57.9
	c2.6-2.6,5.3-5,8.2-7.2c-1.2,18.9,1.9,37.8,8.9,55.2c-4.4-0.5-8.8-0.7-13.2-0.7c-1.2,0-2.5,0-3.7,0.1c-0.6,0-1.1,0-1.7,0.1
	c-0.7,0-1.3,0.1-2,0.1c-0.7,0-1.4,0.1-2.1,0.1c-0.5,0-1,0.1-1.5,0.1c-0.8,0.1-1.6,0.1-2.3,0.2c-0.4,0-0.8,0.1-1.2,0.1
	c-0.8,0.1-1.6,0.2-2.4,0.3c-0.4,0.1-0.8,0.1-1.2,0.2c-0.8,0.1-1.5,0.2-2.3,0.4c-0.5,0.1-1.1,0.2-1.6,0.3c-0.6,0.1-1.2,0.2-1.8,0.3
	c-2.3,0.4-4.5,0.9-6.7,1.5C291.9,90.2,300.7,72.3,315.1,57.9z M399,448c-17.1,0-32.9-5.5-45.9-14.7C329.6,461.6,294.6,480,255,480
	c-39.6,0-74.6-18.4-98.1-46.7c-13,9.2-28.8,14.7-45.9,14.7c-44.2,0-80-35.8-80-80s35.8-80,80-80c10.8,0,21.1,2.2,30.4,6.1
	c0.6-1.1,1.3-2,1.8-3c5.6-10.3,12.6-19.7,20.7-28c23.1-23.9,55.2-39,91.1-39c49.7,0,92.3,28.7,113.5,70.1c5.6-2.3,11.7-3.8,17.9-4.8
	L399,288c12.3,0,23.9,3,34.3,8c11.3,5.4,21,13.4,28.6,23.2c10.5,13.5,17,30.4,17,48.8C479,412.2,443.2,448,399,448z M464.6,277.6
	c-18.5-13.5-41-21.6-65.6-21.6c-5.3,0-10.6,0.4-15.8,1.1c-29.9-40.7-77-65.1-128.2-65.1c-34.1,0-66.3,11-92.9,30.3
	c7.5-22.9,28.7-39.5,54.1-39.5c7.8,0,15.1,1.6,21.8,4.3c10.6-20.7,28.6-36.8,50.6-44.7c0,0,0,0.1,0,0.1c9.5-3.4,19.7-5.3,30.4-5.3
	c14.7,0,28.6,3.5,40.8,9.7c-0.1-0.1-0.1-0.1-0.2-0.2c17.5,8.8,31.7,23,40.6,40.4c6.7-2.8,14.1-4.3,21.7-4.3
	c31.6,0,57.2,25.6,57.2,57.1C479,254.5,473.4,267.5,464.6,277.6z"/>
</svg>
