<?xml version="1.0" encoding="utf-8"?>
<!-- Generator: Adobe Illustrator 19.2.0, SVG Export Plug-In . SVG Version: 6.00 Build 0)  -->
<svg version="1.1" id="Layer_1" xmlns="http://www.w3.org/2000/svg" xmlns:xlink="http://www.w3.org/1999/xlink" x="0px" y="0px"
	 viewBox="0 0 512 512" style="enable-background:new 0 0 512 512;" xml:space="preserve">
<style type="text/css">
	.st0{fill:#1D1D1B;}
</style>
<path class="st0" d="M505.6,150.9c-4.4-4.4-10.8-5.9-16.6-3.8c-35.4,12.5-73.7,4-99.9-22.3c-26.2-26.3-34.8-64.5-22.2-99.9
	c2.1-5.8,0.6-12.3-3.8-16.6c-4.3-4.4-10.8-5.8-16.6-3.8c-18.5,6.6-34.6,16.6-47.8,29.8c-9.3,9.3-16.8,19.6-22.6,30.6
	C252.6,44,222.1,32,190.3,32c-34.6,0-67.7,14.2-91.7,38.8c-52.8,2.4-95,46.2-95,99.5c0,55,44.7,99.7,99.7,99.7
	c5.8,0,11.6-0.5,17.3-1.5c20.7,13.5,44.9,20.8,69.7,20.8c24.9,0,49.1-7.3,69.8-20.8c5.7,1,11.5,1.5,17.3,1.5
	c25.5,0,48.8-9.6,66.4-25.5c45.6,17.2,99.1,7.4,135.7-29.2c13.2-13.2,23.3-29.3,29.8-47.8C511.4,161.7,510,155.2,505.6,150.9z
	 M321.2,56.9c2.6-2.6,5.3-5,8.2-7.2c-0.8,12.8,0.3,25.5,3.3,37.7c-7.9-5.3-16.5-9.4-25.7-12.3C310.8,68.7,315.6,62.5,321.2,56.9z
	 M335.7,204.6c-5.6,9.5-13.3,17.4-22.6,23.2c-10.4,6.5-22.6,10.2-35.7,10.2c-8.3,0-16.4-1.5-24-4.5c-17.5,15.3-39.8,23.8-63.1,23.8
	c-23.2,0-45.5-8.5-63-23.8c-7.6,3-15.8,4.5-24,4.5c-37.3,0-67.7-30.4-67.7-67.7s30.4-67.7,67.7-67.7c3.2,0,6.4,0.3,9.5,0.7
	C130.9,78.8,159.4,64,190.3,64c28.8,0,55.4,12.8,73.5,34.3c1.4,1.6,2.7,3.3,4,5c3.1-0.4,6.3-0.7,9.6-0.7c6.2,0,12.1,0.8,17.8,2.4
	c28.7,7.8,49.8,34.1,49.8,65.3C345,182.8,341.6,194.5,335.7,204.6z M365.1,217.6c7.6-14.1,11.9-30.1,11.9-47.2c0-4.8-0.3-9.6-1-14.2
	c25.1,20.5,56.4,30.4,88.2,28.4C440.2,215.2,400.5,226.5,365.1,217.6z"/>
<path class="st0" d="M161.1,377.5l-16.4-9.5l16.4-9.4c5.6-3.3,7.6-10.5,4.3-16.2c-3.3-5.6-10.5-7.6-16.2-4.3l-16.4,9.5v-18.9
	c0-6.5-5.3-11.8-11.9-11.8s-11.8,5.3-11.8,11.8v18.9L92.8,338c-5.7-3.3-12.9-1.3-16.2,4.3s-1.3,12.9,4.3,16.2l16.4,9.4L81,377.5
	c-5.6,3.3-7.6,10.5-4.3,16.2c3.3,5.7,10.5,7.6,16.1,4.3l16.4-9.5v18.9c0,6.5,5.3,11.8,11.8,11.8c6.5,0,11.9-5.3,11.9-11.8v-18.9
	l16.4,9.5c5.6,3.3,12.9,1.3,16.2-4.3C168.6,388,166.7,380.7,161.1,377.5z"/>
<path class="st0" d="M289.1,441.5l-16.4-9.5l16.4-9.4c5.6-3.3,7.6-10.5,4.3-16.2c-3.3-5.6-10.5-7.6-16.2-4.3l-16.4,9.5v-18.9
	c0-6.5-5.3-11.8-11.9-11.8c-6.5,0-11.8,5.3-11.8,11.8v18.9l-16.3-9.5c-5.7-3.3-12.9-1.3-16.2,4.3s-1.3,12.9,4.3,16.2l16.4,9.4
	l-16.4,9.5c-5.6,3.3-7.6,10.5-4.3,16.2c3.3,5.7,10.5,7.6,16.1,4.3l16.4-9.5v18.9c0,6.5,5.3,11.8,11.8,11.8c6.5,0,11.9-5.3,11.9-11.8
	v-18.9l16.4,9.5c5.6,3.3,12.9,1.3,16.2-4.3C296.6,452,294.7,444.7,289.1,441.5z"/>
</svg>
