<?xml version="1.0" encoding="utf-8"?>
<!-- Generator: Adobe Illustrator 19.2.0, SVG Export Plug-In . SVG Version: 6.00 Build 0)  -->
<svg version="1.1" id="Layer_1" xmlns="http://www.w3.org/2000/svg" xmlns:xlink="http://www.w3.org/1999/xlink" x="0px" y="0px"
	 viewBox="0 0 512 512" style="enable-background:new 0 0 512 512;" xml:space="preserve">
<style type="text/css">
	.st0{fill:#1D1D1B;}
</style>
<path class="st0" d="M382.7,384c0,17.7,14.3,32,32,32s32-14.3,32-32s-32-64-32-64S382.7,366.3,382.7,384z"/>
<path class="st0" d="M89,384c0,17.7,14.3,32,32,32s32-14.3,32-32s-32-64-32-64S89,366.3,89,384z"/>
<path class="st0" d="M505.6,150.9c-4.4-4.4-10.8-5.9-16.6-3.8c-35.4,12.5-73.7,4-99.9-22.3c-26.2-26.3-34.8-64.5-22.2-99.9
	c2.1-5.8,0.6-12.3-3.8-16.6c-4.3-4.4-10.8-5.8-16.6-3.8c-18.5,6.6-34.6,16.6-47.8,29.8c-9.3,9.3-16.8,19.6-22.6,30.6
	C252.6,44,222.1,32,190.3,32c-34.6,0-67.7,14.2-91.7,38.8c-52.8,2.4-95,46.2-95,99.5c0,55,44.7,99.7,99.7,99.7
	c5.8,0,11.6-0.5,17.3-1.5c20.7,13.5,44.9,20.8,69.7,20.8c24.9,0,49.1-7.3,69.8-20.8c5.7,1,11.5,1.5,17.3,1.5
	c25.5,0,48.8-9.6,66.4-25.5c45.6,17.2,99.1,7.4,135.7-29.2c13.2-13.2,23.3-29.3,29.8-47.8C511.4,161.7,510,155.2,505.6,150.9z
	 M321.2,56.9c2.6-2.6,5.3-5,8.2-7.2c-0.8,12.8,0.3,25.5,3.3,37.7c-7.9-5.3-16.5-9.4-25.7-12.3C310.8,68.7,315.6,62.5,321.2,56.9z
	 M335.7,204.6c-5.6,9.5-13.3,17.4-22.6,23.2c-10.4,6.5-22.6,10.2-35.7,10.2c-8.3,0-16.4-1.5-24-4.5c-17.5,15.3-39.8,23.8-63.1,23.8
	c-23.2,0-45.5-8.5-63-23.8c-7.6,3-15.8,4.5-24,4.5c-37.3,0-67.7-30.4-67.7-67.7s30.4-67.7,67.7-67.7c3.2,0,6.4,0.3,9.5,0.7
	C130.9,78.8,159.4,64,190.3,64c28.8,0,55.4,12.8,73.5,34.3c1.4,1.6,2.7,3.3,4,5c3.1-0.4,6.3-0.7,9.6-0.7c6.2,0,12.1,0.8,17.8,2.4
	c28.7,7.8,49.8,34.1,49.8,65.3C345,182.8,341.6,194.5,335.7,204.6z M365.1,217.6c7.6-14.1,11.9-30.1,11.9-47.2c0-4.8-0.3-9.6-1-14.2
	c25.1,20.5,56.4,30.4,88.2,28.4C440.2,215.2,400.5,226.5,365.1,217.6z"/>
<path class="st0" d="M253.4,398.1c-2.6,4.2-47.1,71.6-47.1,71.6S287,399.5,290,397c5-4.4,4.7-5.6,1.2-12.1c-2.5-4.6-10.9-20.3-13-24
	c-2.4-4.3-2.8-4.2-0.3-8.2c2.5-4,51.6-86.4,51.6-86.4s-79,67.8-85.5,73.4c-9.2,8-9.1,9.5-4.3,20c2.5,5.3,12.3,26.6,14.2,30.1
	C255.8,393.6,256.4,393.4,253.4,398.1z"/>
</svg>
